<svg xmlns="http://www.w3.org/2000/svg" width="500.421" height="430.098" viewBox="0 0 500.421 430.098">
  <g id="Grupo_93799" data-name="Grupo 93799" transform="translate(717.407 446.295)">
    <g id="Grupo_93693" data-name="Grupo 93693" transform="translate(-375.809 -315.409)">
      <g id="Grupo_93692" data-name="Grupo 93692">
        <path id="Trazado_149769" data-name="Trazado 149769" d="M645.016,157.888l3.36-13.646,7.371,1.815L609.334,69.322l12.025-7.273,46.413,76.735,1.815-7.371,13.646,3.36-7.551,30.666Zm6.574-8.332-1.26,5.118,22.137,5.451,5.451-22.137-5.117-1.26-3.3,13.4L619.874,68.079l-4.509,2.728,49.627,82.049Z" transform="translate(-609.334 -62.049)" fill="#4dd0e1"/>
      </g>
    </g>
    <g id="Grupo_93694" data-name="Grupo 93694" transform="translate(-441.371 -279.468)">
      <path id="Trazado_149770" data-name="Trazado 149770" d="M428.6,297.757l-46.413-76.735,7.371,1.815,3.36-13.646-30.666-7.551L354.7,232.306l13.647,3.36,1.815-7.371,46.412,76.735ZM418.056,299l-49.627-82.05-3.3,13.4-5.117-1.26,5.451-22.137L387.6,212.4l-1.26,5.118-13.4-3.3,49.627,82.05Z" transform="translate(-354.697 -201.64)" fill="#4dd0e1"/>
    </g>
    <g id="Grupo_93726" data-name="Grupo 93726" transform="translate(-654.116 -446.292)">
      <g id="Grupo_93722" data-name="Grupo 93722" transform="translate(121.934)">
        <g id="Grupo_93695" data-name="Grupo 93695" transform="translate(44.586 104.132)">
          <path id="Trazado_149771" data-name="Trazado 149771" d="M175.162-41.85v7.05a.673.673,0,0,0,.673.673h6.858V-41.85Z" transform="translate(-175.162 41.85)" fill="#ffece4"/>
        </g>
        <g id="Grupo_93696" data-name="Grupo 93696" transform="translate(44.585 87.963)">
          <path id="Trazado_149772" data-name="Trazado 149772" d="M217.815-88.481v-7.882a8.287,8.287,0,0,0-8.287-8.287h-4.7l-6.815,4.376a1.32,1.32,0,0,1-.713.209h-1.622a1.321,1.321,0,0,1-.713-.209l-6.815-4.376h-4.7a8.287,8.287,0,0,0-8.288,8.288v7.881h7.531v7.726h27.592v-7.726Z" transform="translate(-175.16 104.65)" fill="#9dc6fb"/>
        </g>
        <g id="Grupo_93697" data-name="Grupo 93697" transform="translate(79.709 104.132)">
          <path id="Trazado_149773" data-name="Trazado 149773" d="M311.578-41.85v7.726h6.858a.673.673,0,0,0,.673-.673V-41.85Z" transform="translate(-311.578 41.85)" fill="#ffece4"/>
        </g>
        <g id="Grupo_93698" data-name="Grupo 93698" transform="translate(57.574 82.997)">
          <path id="Trazado_149774" data-name="Trazado 149774" d="M239.8-121.455v-2.485a11.6,11.6,0,0,1-5.858,2.209,11.6,11.6,0,0,1-5.858-2.209v2.485a2.481,2.481,0,0,1-2.481,2.481l6.815,4.376a1.32,1.32,0,0,0,.713.209h1.622a1.321,1.321,0,0,0,.713-.209l6.815-4.376a2.481,2.481,0,0,1-2.482-2.481Z" transform="translate(-225.606 123.94)" fill="#ffddce"/>
        </g>
        <g id="Grupo_93699" data-name="Grupo 93699" transform="translate(87.24 87.963)">
          <path id="Trazado_149775" data-name="Trazado 149775" d="M375.2-104.651h-4.7l-6.132,3.938a4.084,4.084,0,0,1-2.207.648,4.084,4.084,0,0,1-2.207-.648l-6.132-3.938h-4.7a8.287,8.287,0,0,0-8.288,8.288v14.934a.673.673,0,0,0,.673.673h41.309a.673.673,0,0,0,.673-.673V-96.364a8.288,8.288,0,0,0-8.288-8.287Z" transform="translate(-340.829 104.651)" fill="#617881"/>
        </g>
        <g id="Grupo_93700" data-name="Grupo 93700" transform="translate(100.228 82.997)">
          <path id="Trazado_149776" data-name="Trazado 149776" d="M405.469-121.455v-2.485a11.6,11.6,0,0,1-5.858,2.209,11.6,11.6,0,0,1-5.858-2.209v2.485a2.481,2.481,0,0,1-2.481,2.481l6.132,3.938a4.084,4.084,0,0,0,2.207.648,4.084,4.084,0,0,0,2.207-.648l6.132-3.938a2.481,2.481,0,0,1-2.481-2.481Z" transform="translate(-391.272 123.94)" fill="#d59b8b"/>
        </g>
        <g id="Grupo_93701" data-name="Grupo 93701" transform="translate(55.33 87.963)">
          <path id="Trazado_149777" data-name="Trazado 149777" d="M219.136-104.651l-2.2,7.123a.917.917,0,0,0,.282.97.917.917,0,0,0,1,.122l7.731-3.839Z" transform="translate(-216.893 104.651)" fill="#bed8fb"/>
        </g>
        <g id="Grupo_93702" data-name="Grupo 93702" transform="translate(67.437 87.963)">
          <path id="Trazado_149778" data-name="Trazado 149778" d="M270.73-104.651l2.2,7.123a.917.917,0,0,1-.282.97.917.917,0,0,1-1,.122l-7.731-3.839Z" transform="translate(-263.915 104.651)" fill="#bed8fb"/>
        </g>
        <g id="Grupo_93703" data-name="Grupo 93703" transform="translate(100.228 87.963)">
          <path id="Trazado_149779" data-name="Trazado 149779" d="M401.819-100.713a4.084,4.084,0,0,1-2.207.648,4.084,4.084,0,0,1-2.207-.648l-6.132-3.938,8.339,23.9,8.339-23.9Z" transform="translate(-391.273 104.651)" fill="#f1eaf9"/>
        </g>
        <g id="Grupo_93704" data-name="Grupo 93704" transform="translate(13.419 82.997)">
          <path id="Trazado_149780" data-name="Trazado 149780" d="M63.953-112.745a10.538,10.538,0,0,0,9.839-6.229h-1.5a2.481,2.481,0,0,1-2.481-2.481v-2.485a11.6,11.6,0,0,1-5.858,2.209,11.6,11.6,0,0,1-5.858-2.209v2.485a2.481,2.481,0,0,1-2.481,2.481h-1.5a10.538,10.538,0,0,0,9.839,6.229Z" transform="translate(-54.114 123.94)" fill="#ffe4c1"/>
        </g>
        <g id="Grupo_93705" data-name="Grupo 93705" transform="translate(1.931 87.963)">
          <path id="Trazado_149781" data-name="Trazado 149781" d="M43.862-104.651h-3.2a10.538,10.538,0,0,1-9.839,6.229,10.538,10.538,0,0,1-9.839-6.229h-3.2A8.287,8.287,0,0,0,9.5-96.364v14.935a.673.673,0,0,0,.673.673H51.477a.673.673,0,0,0,.673-.673V-96.364a8.288,8.288,0,0,0-8.287-8.287Z" transform="translate(-9.495 104.651)" fill="#e28086"/>
        </g>
        <g id="Grupo_93706" data-name="Grupo 93706" transform="translate(11.762 52.758)">
          <path id="Trazado_149782" data-name="Trazado 149782" d="M57.326-230.871l.564.564a1.4,1.4,0,0,0,1.973,0l.427-.427a4.349,4.349,0,0,1,6.151,0l4.032,4.032.172-2.336a11.5,11.5,0,0,0-3.093-8.728,11.5,11.5,0,0,0-8.524-3.619,11.493,11.493,0,0,0-8.377,3.768,11.493,11.493,0,0,0-2.941,8.7l.1,1.4,3.361-3.361a4.35,4.35,0,0,1,3.078-1.274,4.35,4.35,0,0,1,3.077,1.278Z" transform="translate(-47.678 241.385)" fill="#617881"/>
        </g>
        <g id="Grupo_93707" data-name="Grupo 93707" transform="translate(11.899 61.998)">
          <path id="Trazado_149783" data-name="Trazado 149783" d="M66.836-204.086a4.349,4.349,0,0,0-6.151,0l-.427.427a1.4,1.4,0,0,1-1.973,0l-.564-.564a4.35,4.35,0,0,0-6.151,0l-3.361,3.361.148,2.011.522,7.082c.412,5.6,7.315,9.48,10.69,9.48s10.277-3.88,10.69-9.48l.515-6.994.1-1.291Z" transform="translate(-48.209 205.497)" fill="#fff1dd"/>
        </g>
        <g id="Grupo_93708" data-name="Grupo 93708" transform="translate(54.417 52.758)">
          <path id="Trazado_149784" data-name="Trazado 149784" d="M221.571-232.6a14.4,14.4,0,0,0,10.179,4.216h4.516l.048-.658a11.5,11.5,0,0,0-3.092-8.727,11.5,11.5,0,0,0-8.522-3.62,11.493,11.493,0,0,0-8.377,3.768,11.493,11.493,0,0,0-2.941,8.7l.25,3.392,7.075-7.075a.613.613,0,0,1,.434-.18.613.613,0,0,1,.434.18Z" transform="translate(-213.346 241.384)" fill="#ffd064"/>
        </g>
        <g id="Grupo_93709" data-name="Grupo 93709" transform="translate(54.699 61.368)">
          <path id="Trazado_149785" data-name="Trazado 149785" d="M232.564-203.547a14.4,14.4,0,0,1-10.178-4.215.614.614,0,0,0-.434-.181.614.614,0,0,0-.435.18l-7.075,7.075v.022l.522,7.082c.412,5.6,7.315,9.48,10.69,9.48s10.278-3.88,10.69-9.48l.515-6.994.219-2.968h-4.516Z" transform="translate(-214.443 207.943)" fill="#ffece4"/>
        </g>
        <g id="Grupo_93710" data-name="Grupo 93710" transform="translate(97.071 52.758)">
          <path id="Trazado_149786" data-name="Trazado 149786" d="M390.363-241.385a11.492,11.492,0,0,0-8.378,3.768,11.492,11.492,0,0,0-2.94,8.7l.773,10.5c.412,5.6,7.315,9.48,10.69,9.48s10.277-3.88,10.69-9.48l.782-10.62a11.5,11.5,0,0,0-3.093-8.728,11.5,11.5,0,0,0-8.524-3.619Z" transform="translate(-379.012 241.385)" fill="#dfaca0"/>
        </g>
        <g id="Grupo_93711" data-name="Grupo 93711" transform="translate(27.793 1.931)">
          <path id="Trazado_149787" data-name="Trazado 149787" d="M116.6-379.146a38.189,38.189,0,0,0,20.912,15.114,7.2,7.2,0,0,1-.137-.965l-.522-7.082v-.022l-.25-3.392a11.492,11.492,0,0,1,2.94-8.7,11.492,11.492,0,0,1,8.378-3.768,11.5,11.5,0,0,1,8.524,3.619,11.5,11.5,0,0,1,3.093,8.728l-.048.658-.219,2.968-.52,6.991a7.289,7.289,0,0,1-.137.965,38.191,38.191,0,0,0,20.939-15.153,11.548,11.548,0,0,1,3.138-5.529,37.977,37.977,0,0,0,3.491-15.958,38.12,38.12,0,0,0-38.12-38.12,38.12,38.12,0,0,0-38.12,38.12,37.978,37.978,0,0,0,3.5,15.978,11.507,11.507,0,0,1,3.155,5.547Z" transform="translate(-109.941 438.791)" fill="#95d6a4"/>
        </g>
        <g id="Grupo_93712" data-name="Grupo 93712" transform="translate(76.466 6.739)">
          <path id="Trazado_149788" data-name="Trazado 149788" d="M306.975-420.118c16.3,22.584,9.32,46.535-7.051,57.962q-.008.2-.023.4l-.048.658-.219,2.968-.515,6.994a7.285,7.285,0,0,1-.137.965,38.192,38.192,0,0,0,20.939-15.153,11.548,11.548,0,0,1,3.138-5.529,37.977,37.977,0,0,0,3.491-15.958,38.11,38.11,0,0,0-19.575-33.312Z" transform="translate(-298.982 420.118)" fill="#78c2a4"/>
        </g>
        <g id="Grupo_93713" data-name="Grupo 93713" transform="translate(40.421 68.394)">
          <path id="Trazado_149789" data-name="Trazado 149789" d="M173.481-177.515a37.963,37.963,0,0,1-14.493-3.142,38.058,38.058,0,0,0,14.939,8.3,7.2,7.2,0,0,1-.137-.965Z" transform="translate(-158.988 180.657)" fill="#78c2a4"/>
        </g>
        <g id="Grupo_93714" data-name="Grupo 93714" transform="translate(51.271 49.461)">
          <path id="Trazado_149790" data-name="Trazado 149790" d="M209.842-251.934a4.7,4.7,0,0,0-6.457-1.57,4.7,4.7,0,0,0-1.57,6.457A14.093,14.093,0,0,0,205-243.4a11.442,11.442,0,0,1,6.757-6.783,4.589,4.589,0,0,1-1.915-1.751Z" transform="translate(-201.129 254.19)" fill="#f1eaf9"/>
        </g>
        <g id="Grupo_93715" data-name="Grupo 93715" transform="translate(49.924 10.092)">
          <path id="Trazado_149791" data-name="Trazado 149791" d="M209.881-372.437h4.006a4.593,4.593,0,0,1,4.588,4.588,4.594,4.594,0,0,1-2.594,4.132,11.547,11.547,0,0,1,6.778,6.752,13.962,13.962,0,0,0,5.214-10.884,14,14,0,0,0-13.986-13.986h-4.006a4.593,4.593,0,0,1-4.588-4.588,4.593,4.593,0,0,1,4.588-4.588h4.006a4.562,4.562,0,0,1,3.925,2.209,4.7,4.7,0,0,0,6.457,1.571,4.7,4.7,0,0,0,1.571-6.457,13.881,13.881,0,0,0-9.257-6.463V-402.4a4.7,4.7,0,0,0-4.7-4.7,4.7,4.7,0,0,0-4.7,4.7v2.25a14.007,14.007,0,0,0-11.29,13.722,14,14,0,0,0,13.986,13.986Z" transform="translate(-195.895 407.095)" fill="#f1eaf9"/>
        </g>
        <g id="Grupo_93716" data-name="Grupo 93716" transform="translate(21.331 69.11)">
          <path id="Trazado_149792" data-name="Trazado 149792" d="M86.775-170.617a3.915,3.915,0,0,0,3.91-3.91v-1.414a1.931,1.931,0,0,0-1.931-1.931,1.931,1.931,0,0,0-1.931,1.931v1.414a.048.048,0,0,1-.048.048,1.931,1.931,0,0,0-1.931,1.931,1.931,1.931,0,0,0,1.931,1.931Z" transform="translate(-84.844 177.873)"/>
        </g>
        <g id="Grupo_93717" data-name="Grupo 93717" transform="translate(63.986 69.11)">
          <path id="Trazado_149793" data-name="Trazado 149793" d="M252.441-170.617a3.915,3.915,0,0,0,3.91-3.91v-1.414a1.931,1.931,0,0,0-1.931-1.931,1.931,1.931,0,0,0-1.931,1.931v1.414a.048.048,0,0,1-.014.034.048.048,0,0,1-.034.014,1.931,1.931,0,0,0-1.931,1.931,1.931,1.931,0,0,0,1.931,1.931Z" transform="translate(-250.51 177.873)"/>
        </g>
        <g id="Grupo_93718" data-name="Grupo 93718">
          <path id="Trazado_149794" data-name="Trazado 149794" d="M123.6-360.26h-4.7a.551.551,0,0,1-.55-.55v-1.517a11.575,11.575,0,0,0,4.827-8.1c.6-8.143.424-5.755.782-10.62a13.469,13.469,0,0,0-3.612-10.191,13.462,13.462,0,0,0-9.954-4.229,13.574,13.574,0,0,0-4.094.676,39.9,39.9,0,0,0,1.658-11.453A40.1,40.1,0,0,0,67.906-446.3a40.043,40.043,0,0,0-30.324,13.886,1.931,1.931,0,0,0,.2,2.72,1.93,1.93,0,0,0,1.4.465,1.93,1.93,0,0,0,1.321-.665,36.182,36.182,0,0,1,27.4-12.544,36.23,36.23,0,0,1,36.19,36.192,35.885,35.885,0,0,1-3.174,14.843,13.423,13.423,0,0,0-3.32,5.848A36.347,36.347,0,0,1,80.67-372.365c.154-2.088.5-6.728.639-8.679a13.411,13.411,0,0,0-.408-4.4,15.836,15.836,0,0,0,4.93-11.507,15.935,15.935,0,0,0-15.916-15.917H65.9a2.66,2.66,0,0,1-2.657-2.657,2.66,2.66,0,0,1,2.657-2.657h4.007a2.646,2.646,0,0,1,2.275,1.282,6.637,6.637,0,0,0,9.11,2.216,6.638,6.638,0,0,0,2.216-9.111,15.944,15.944,0,0,0-8.975-6.968v-.735a6.638,6.638,0,0,0-6.63-6.63,6.638,6.638,0,0,0-6.63,6.63v.744a15.953,15.953,0,0,0-11.29,15.229,15.935,15.935,0,0,0,15.917,15.917h4.007a2.66,2.66,0,0,1,2.657,2.657,2.676,2.676,0,0,1-.933,2.018,13.41,13.41,0,0,0-3.9-.528,13.625,13.625,0,0,0-3.579.518,2.714,2.714,0,0,1-.531-.633,6.638,6.638,0,0,0-9.111-2.215,6.588,6.588,0,0,0-3,4.1,6.587,6.587,0,0,0,.779,5.014,16.055,16.055,0,0,0,2.612,3.257,13.889,13.889,0,0,0-.4,4.507l.249,3.387v.028l.379,5.14a36.348,36.348,0,0,1-16.933-13.181,13.45,13.45,0,0,0-3.314-5.832,35.879,35.879,0,0,1-3.183-14.862,35.806,35.806,0,0,1,3.871-16.3,1.931,1.931,0,0,0-.852-2.595,1.931,1.931,0,0,0-2.6.852,39.634,39.634,0,0,0-4.286,18.044,39.893,39.893,0,0,0,1.664,11.471,13.315,13.315,0,0,0-4.436-.694,13.254,13.254,0,0,0-9.7,4.313,13.5,13.5,0,0,0-3.516,10.23l.1,1.4h0l.67,9.093a11.576,11.576,0,0,0,4.826,8.1v1.517a.551.551,0,0,1-.55.55h-4.7A10.23,10.23,0,0,0,2-350.042v3.26a1.931,1.931,0,0,0,1.931,1.931,1.931,1.931,0,0,0,1.931-1.931v-3.26a6.364,6.364,0,0,1,6.356-6.356h2a12.7,12.7,0,0,0,11.042,6.229A12.7,12.7,0,0,0,36.3-356.4h2a6.364,6.364,0,0,1,6.356,6.356v13.677H40.981v-7.847a1.931,1.931,0,0,0-1.931-1.931,1.931,1.931,0,0,0-1.931,1.931v7.847H13.388v-7.847a1.931,1.931,0,0,0-1.931-1.931,1.931,1.931,0,0,0-1.931,1.931v7.847H5.857v-1.4A1.931,1.931,0,0,0,3.926-339.7,1.931,1.931,0,0,0,2-337.77v2.664a2.606,2.606,0,0,0,2.6,2.6H45.908a2.6,2.6,0,0,0,.673-.088,2.6,2.6,0,0,0,.673.088H88.562a2.6,2.6,0,0,0,.673-.088,2.6,2.6,0,0,0,.673.088h41.309a2.607,2.607,0,0,0,2.6-2.6v-14.935A10.23,10.23,0,0,0,123.6-360.26Zm-8.325,1.963-3.552,2.28a2.187,2.187,0,0,1-2.327,0l-3.551-2.28a4.389,4.389,0,0,0,.731-1.8,10.822,10.822,0,0,0,3.984.946,10.827,10.827,0,0,0,3.984-.946A4.392,4.392,0,0,0,115.275-358.3Zm4.857-23.376-.807,10.965c-.327,4.443-6.319,7.69-8.764,7.69s-8.437-3.247-8.764-7.69l-.8-10.88h.012a9.62,9.62,0,0,1,2.846-7.283c.023-.021.045-.043.067-.066a9.432,9.432,0,0,1,6.519-2.666,9.51,9.51,0,0,1,7.094,3.013,9.461,9.461,0,0,1,2.593,6.916Zm-22.823,2.624.635,8.625a11.575,11.575,0,0,0,4.827,8.1v1.517a.551.551,0,0,1-.55.55h-4.7a10.212,10.212,0,0,0-8.288,4.246,10.212,10.212,0,0,0-8.287-4.246h-4.7a.551.551,0,0,1-.55-.55v-1.517a12.677,12.677,0,0,0,4.338-5.732A40.14,40.14,0,0,0,97.31-379.045ZM75.9-352.895l-2.564-1.273,1.811-1.163Zm-7.365-2.78H67.276L63.193-358.3a4.388,4.388,0,0,0,.731-1.8,10.821,10.821,0,0,0,3.984.946,10.825,10.825,0,0,0,3.984-.946,4.385,4.385,0,0,0,.731,1.8Zm-6.065,1.507-2.564,1.273.753-2.436Zm-3.228-15.821c-.135-.633-.069-.492-.561-6.94l5.554-5.555A16.2,16.2,0,0,0,74.816-378.6h2.437l-.581,7.889c-.327,4.443-6.319,7.69-8.764,7.69-2.311,0-7.791-2.9-8.661-6.972Zm10.664-33.484H65.9a12.069,12.069,0,0,1-12.05-12.055,12.076,12.076,0,0,1,9.731-11.828,1.931,1.931,0,0,0,1.56-1.895v-2.25a2.771,2.771,0,0,1,2.768-2.768,2.771,2.771,0,0,1,2.768,2.768v2.244a1.931,1.931,0,0,0,1.565,1.9,11.883,11.883,0,0,1,7.973,5.571,2.771,2.771,0,0,1-.926,3.8,2.771,2.771,0,0,1-3.8-.925,6.478,6.478,0,0,0-5.574-3.137H65.9a6.527,6.527,0,0,0-6.519,6.519A6.527,6.527,0,0,0,65.9-409.01h4.007a12.068,12.068,0,0,1,12.054,12.055,11.983,11.983,0,0,1-2.756,7.663,13.366,13.366,0,0,0-3.935-3.973,6.524,6.524,0,0,0,1.155-3.69,6.526,6.526,0,0,0-6.519-6.52ZM74.88-388.59a9.457,9.457,0,0,1,2.592,6.131H74.816A12.379,12.379,0,0,1,66-386.11a2.529,2.529,0,0,0-1.8-.745,2.527,2.527,0,0,0-1.8.746l-4.061,4.061a9.768,9.768,0,0,1,.648-3.449,9.559,9.559,0,0,1,7.091-5.94A9.559,9.559,0,0,1,74.88-388.59ZM55.6-390.69a2.751,2.751,0,0,1-.325-2.093,2.751,2.751,0,0,1,1.25-1.71,2.771,2.771,0,0,1,3.8.925q.092.151.192.3a13.571,13.571,0,0,0-3.924,3.989,12.359,12.359,0,0,1-1-1.407Zm-37.376,2.153a9.428,9.428,0,0,1,6.906-3.063,9.468,9.468,0,0,1,6.776,2.691l.063.061a9.487,9.487,0,0,1,2.762,5.448l-.846-.846a6.288,6.288,0,0,0-8.882,0l-.048.048-.185-.185a6.24,6.24,0,0,0-4.441-1.84,6.236,6.236,0,0,0-4.314,1.716,9.564,9.564,0,0,1,2.21-4.031Zm-2.342,9.62,2.736-2.736a2.4,2.4,0,0,1,1.71-.708,2.4,2.4,0,0,1,1.71.709l.564.564a3.33,3.33,0,0,0,4.7,0l.426-.427a2.421,2.421,0,0,1,3.42,0l3.407,3.407-.545,7.4c-.327,4.443-6.319,7.69-8.764,7.69s-8.437-3.247-8.764-7.69Zm9.369,24.887a9.052,9.052,0,0,1-6.557-2.743,4.427,4.427,0,0,0,2.573-3.327,10.82,10.82,0,0,0,3.984.946,10.826,10.826,0,0,0,3.984-.946,4.426,4.426,0,0,0,2.573,3.327,9.05,9.05,0,0,1-6.557,2.741Zm13.04-6.228h-4.7a.551.551,0,0,1-.55-.55v-1.517a11.574,11.574,0,0,0,4.826-8.1c.111-1.509.585-7.937.635-8.625A40.145,40.145,0,0,0,55.78-368.06a12.678,12.678,0,0,0,4.338,5.733v1.517a.551.551,0,0,1-.55.55h-4.7a10.212,10.212,0,0,0-8.288,4.246,10.213,10.213,0,0,0-8.287-4.246Zm10.219,20.032h3.669v3.864H48.512Zm7.531-3.983a1.931,1.931,0,0,0-1.931-1.931,1.931,1.931,0,0,0-1.931,1.931v.121H48.512v-5.951a6.364,6.364,0,0,1,6.356-6.356H56.95l-1.428,4.622a2.845,2.845,0,0,0,.876,3.011,2.845,2.845,0,0,0,3.113.381l7.008-3.48a3.254,3.254,0,0,0,.578.051h1.622a3.277,3.277,0,0,0,.578-.051l7.007,3.48a2.846,2.846,0,0,0,3.112-.381,2.845,2.845,0,0,0,.877-3.011L78.864-356.4h2.083a6.364,6.364,0,0,1,6.356,6.356v5.951H83.635v-.121a1.931,1.931,0,0,0-1.931-1.931,1.931,1.931,0,0,0-1.931,1.931v7.847H56.042v-7.847Zm31.257,3.98v3.864H83.635v-3.864Zm3.862-9.813a6.364,6.364,0,0,1,6.356-6.356h3.329l1.722,4.934a1.931,1.931,0,0,0,2.46,1.187,1.931,1.931,0,0,0,1.187-2.46l-.329-.942,1.421.912a6.014,6.014,0,0,0,6.5,0l1.421-.913-4.671,13.385-1.238-3.546a1.93,1.93,0,0,0-.984-1.1,1.93,1.93,0,0,0-1.476-.083,1.931,1.931,0,0,0-1.187,2.46l2.165,6.2H98.7v-7.847a1.931,1.931,0,0,0-1.931-1.931,1.931,1.931,0,0,0-1.931,1.931v7.847H91.166Zm38.793,13.677h-3.669v-7.847a1.931,1.931,0,0,0-1.931-1.931,1.931,1.931,0,0,0-1.931,1.931v7.847h-9.146l6.991-20.033H123.6a6.364,6.364,0,0,1,6.356,6.356Z" transform="translate(-1.995 446.292)"/>
        </g>
        <g id="Grupo_93719" data-name="Grupo 93719" transform="translate(106.64 69.11)">
          <path id="Trazado_149795" data-name="Trazado 149795" d="M420.086-177.873a1.931,1.931,0,0,0-1.931,1.931v1.414a.048.048,0,0,1-.048.048,1.931,1.931,0,0,0-1.931,1.931,1.931,1.931,0,0,0,1.931,1.931,3.915,3.915,0,0,0,3.91-3.91v-1.414A1.931,1.931,0,0,0,420.086-177.873Z" transform="translate(-416.176 177.873)"/>
        </g>
        <g id="Grupo_93720" data-name="Grupo 93720" transform="translate(63.986 97.054)">
          <circle id="Elipse_5063" data-name="Elipse 5063" cx="1.931" cy="1.931" r="1.931" transform="translate(0 0)"/>
        </g>
        <g id="Grupo_93721" data-name="Grupo 93721" transform="translate(63.986 103.49)">
          <circle id="Elipse_5064" data-name="Elipse 5064" cx="1.931" cy="1.931" r="1.931" transform="translate(0 0)"/>
        </g>
      </g>
      <g id="Grupo_93723" data-name="Grupo 93723" transform="translate(140.246 118.571)">
        <path id="Trazado_149796" data-name="Trazado 149796" d="M87.573,25.9a6.3,6.3,0,0,1-.972,3.184,5.868,5.868,0,0,1-2.5,2.141,8.5,8.5,0,0,1-3.67.759,6.779,6.779,0,0,1-5.36-2.218A9.155,9.155,0,0,1,73.118,23.5v-.854A10.448,10.448,0,0,1,74,18.208a6.692,6.692,0,0,1,2.544-2.941,7.1,7.1,0,0,1,3.842-1.038,7.443,7.443,0,0,1,5.052,1.654,6.538,6.538,0,0,1,2.17,4.56h-4.15a3.092,3.092,0,0,0-.795-2.265,3.268,3.268,0,0,0-2.277-.688,2.486,2.486,0,0,0-2.277,1.162,7.467,7.467,0,0,0-.759,3.712v1.221a8.263,8.263,0,0,0,.694,3.949,2.538,2.538,0,0,0,2.39,1.186,3.2,3.2,0,0,0,2.194-.676,2.869,2.869,0,0,0,.806-2.146Z" transform="translate(-73.118 -14.229)" fill="#12263f"/>
        <path id="Trazado_149797" data-name="Trazado 149797" d="M141.069,29.26h7.246v3.2H136.907V15.2h4.162Z" transform="translate(-120.483 -14.947)" fill="#12263f"/>
        <path id="Trazado_149798" data-name="Trazado 149798" d="M193.284,32.462h-4.15V15.2h4.15Z" transform="translate(-159.263 -14.947)" fill="#12263f"/>
        <path id="Trazado_149799" data-name="Trazado 149799" d="M227.2,25.133h-6.546V29.26h7.732v3.2H216.493V15.2H228.41v3.21h-7.755v3.64H227.2Z" transform="translate(-179.578 -14.947)" fill="#12263f"/>
        <path id="Trazado_149800" data-name="Trazado 149800" d="M283.693,32.462h-4.138l-6.119-10.744V32.462h-4.162V15.2h4.162l6.107,10.744V15.2h4.15Z" transform="translate(-218.769 -14.947)" fill="#12263f"/>
        <path id="Trazado_149801" data-name="Trazado 149801" d="M346.527,18.41h-5.182V32.462h-4.162V18.41H332.1V15.2h14.432Z" transform="translate(-265.416 -14.947)" fill="#12263f"/>
        <path id="Trazado_149802" data-name="Trazado 149802" d="M405.67,25.133h-6.546V29.26h7.732v3.2H394.962V15.2H406.88v3.21h-7.755v3.64h6.546Z" transform="translate(-312.096 -14.947)" fill="#12263f"/>
      </g>
      <g id="Grupo_93724" data-name="Grupo 93724" transform="translate(0 43.103)">
        <path id="Trazado_149803" data-name="Trazado 149803" d="M-369.26-267.6a4.848,4.848,0,0,1-1.543,3.227,5.057,5.057,0,0,1-3.453,1.136,4.644,4.644,0,0,1-3.744-1.67,6.737,6.737,0,0,1-1.408-4.481v-1.267a7.507,7.507,0,0,1,.656-3.232,4.9,4.9,0,0,1,1.86-2.141,5.177,5.177,0,0,1,2.788-.747,4.763,4.763,0,0,1,3.367,1.172,4.908,4.908,0,0,1,1.475,3.245h-1.747a3.789,3.789,0,0,0-.982-2.288,2.972,2.972,0,0,0-2.114-.708,3.11,3.11,0,0,0-2.612,1.232,5.658,5.658,0,0,0-.946,3.506v1.277a5.815,5.815,0,0,0,.9,3.416,2.9,2.9,0,0,0,2.507,1.268,3.345,3.345,0,0,0,2.222-.656,3.641,3.641,0,0,0,1.027-2.286Z" transform="translate(403.141 277.317)" fill="#12263f"/>
        <path id="Trazado_149804" data-name="Trazado 149804" d="M-329.568-264.981h-1.675v-13.9h1.675Z" transform="translate(367.377 278.884)" fill="#12263f"/>
        <path id="Trazado_149805" data-name="Trazado 149805" d="M-314.3-275.806a1,1,0,0,1,.249-.688.935.935,0,0,1,.738-.28.949.949,0,0,1,.742.28.99.99,0,0,1,.254.688.957.957,0,0,1-.254.679.966.966,0,0,1-.742.272.952.952,0,0,1-.738-.272.966.966,0,0,1-.249-.679Zm1.81,12.392h-1.675v-9.794h1.675Z" transform="translate(354.794 277.317)" fill="#12263f"/>
        <path id="Trazado_149806" data-name="Trazado 149806" d="M-294.022-253.47a4.279,4.279,0,0,1-3.241-1.308,4.855,4.855,0,0,1-1.249-3.5v-.308a5.875,5.875,0,0,1,.557-2.6,4.34,4.34,0,0,1,1.557-1.792,3.913,3.913,0,0,1,2.168-.647,3.668,3.668,0,0,1,2.969,1.258,5.448,5.448,0,0,1,1.059,3.6v.7h-6.635a3.48,3.48,0,0,0,.846,2.34,2.66,2.66,0,0,0,2.059.892,2.915,2.915,0,0,0,1.5-.362,3.77,3.77,0,0,0,1.077-.959l1.023.8a4.113,4.113,0,0,1-3.69,1.886Zm-.208-8.78a2.234,2.234,0,0,0-1.7.738,3.586,3.586,0,0,0-.851,2.068h4.906v-.127a3.19,3.19,0,0,0-.688-1.978A2.1,2.1,0,0,0-294.23-262.25Z" transform="translate(343.074 267.555)" fill="#12263f"/>
        <path id="Trazado_149807" data-name="Trazado 149807" d="M-257.131-263.445l.054,1.231a3.569,3.569,0,0,1,2.933-1.412q3.1,0,3.132,3.5v6.472h-1.675v-6.481a2.256,2.256,0,0,0-.484-1.566,1.942,1.942,0,0,0-1.48-.507,2.417,2.417,0,0,0-1.43.434,2.949,2.949,0,0,0-.959,1.141v6.979h-1.675v-9.794Z" transform="translate(313.523 267.555)" fill="#12263f"/>
        <path id="Trazado_149808" data-name="Trazado 149808" d="M-220.136-272.134v2.372h1.829v1.294h-1.829v6.081a1.359,1.359,0,0,0,.245.884,1.028,1.028,0,0,0,.833.3,4.062,4.062,0,0,0,.8-.109v1.35a4.87,4.87,0,0,1-1.285.18,2.086,2.086,0,0,1-1.693-.679,2.918,2.918,0,0,1-.57-1.928v-6.074h-1.783v-1.294h1.783v-2.372Z" transform="translate(287.445 273.872)" fill="#12263f"/>
        <path id="Trazado_149809" data-name="Trazado 149809" d="M-192.632-253.47a4.279,4.279,0,0,1-3.241-1.308,4.855,4.855,0,0,1-1.249-3.5v-.308a5.874,5.874,0,0,1,.557-2.6,4.341,4.341,0,0,1,1.557-1.792,3.914,3.914,0,0,1,2.168-.647,3.669,3.669,0,0,1,2.969,1.258,5.448,5.448,0,0,1,1.059,3.6v.7h-6.635a3.483,3.483,0,0,0,.846,2.34,2.661,2.661,0,0,0,2.059.892,2.916,2.916,0,0,0,1.5-.362,3.771,3.771,0,0,0,1.077-.959l1.023.8a4.113,4.113,0,0,1-3.69,1.886Zm-.208-8.78a2.233,2.233,0,0,0-1.7.738,3.587,3.587,0,0,0-.851,2.068h4.906v-.127a3.19,3.19,0,0,0-.688-1.978A2.1,2.1,0,0,0-192.84-262.25Z" transform="translate(267.789 267.555)" fill="#12263f"/>
        <path id="Trazado_149810" data-name="Trazado 149810" d="M-471.586-191.806a1,1,0,0,1,.249-.688.936.936,0,0,1,.738-.28.949.949,0,0,1,.742.28.99.99,0,0,1,.254.688.957.957,0,0,1-.254.679.966.966,0,0,1-.742.272.952.952,0,0,1-.738-.272A.966.966,0,0,1-471.586-191.806Zm1.81,12.392h-1.675v-9.794h1.675Z" transform="translate(471.586 214.945)" fill="#12263f"/>
        <path id="Trazado_149811" data-name="Trazado 149811" d="M-452.565-179.445l.054,1.231a3.569,3.569,0,0,1,2.933-1.412q3.1,0,3.132,3.5v6.472h-1.675v-6.481a2.254,2.254,0,0,0-.484-1.566,1.941,1.941,0,0,0-1.48-.507,2.416,2.416,0,0,0-1.43.434,2.949,2.949,0,0,0-.96,1.141v6.979h-1.675v-9.794Z" transform="translate(458.639 205.182)" fill="#12263f"/>
        <path id="Trazado_149812" data-name="Trazado 149812" d="M-413.984-171.4l2.426-7.522h1.711l-3.512,9.794h-1.276l-3.548-9.794h1.711Z" transform="translate(431.934 204.66)" fill="#12263f"/>
        <path id="Trazado_149813" data-name="Trazado 149813" d="M-376.71-169.47a4.279,4.279,0,0,1-3.241-1.308,4.854,4.854,0,0,1-1.249-3.5v-.308a5.878,5.878,0,0,1,.557-2.6,4.342,4.342,0,0,1,1.557-1.792,3.915,3.915,0,0,1,2.168-.647,3.668,3.668,0,0,1,2.969,1.258,5.447,5.447,0,0,1,1.059,3.6v.7h-6.635a3.482,3.482,0,0,0,.846,2.34,2.661,2.661,0,0,0,2.059.892,2.915,2.915,0,0,0,1.5-.362,3.772,3.772,0,0,0,1.077-.959l1.023.8A4.113,4.113,0,0,1-376.71-169.47Zm-.208-8.78a2.233,2.233,0,0,0-1.7.738,3.587,3.587,0,0,0-.851,2.068h4.906v-.127a3.19,3.19,0,0,0-.688-1.978,2.1,2.1,0,0,0-1.668-.7Z" transform="translate(404.472 205.182)" fill="#12263f"/>
        <path id="Trazado_149814" data-name="Trazado 149814" d="M-336.669-177.942a5.015,5.015,0,0,0-.824-.063,2.207,2.207,0,0,0-2.236,1.4v6.952H-341.4v-9.794h1.629l.027,1.132a2.607,2.607,0,0,1,2.335-1.313,1.711,1.711,0,0,1,.742.127Z" transform="translate(374.921 205.182)" fill="#12263f"/>
        <path id="Trazado_149815" data-name="Trazado 149815" d="M-312.512-172.249a1.233,1.233,0,0,0-.511-1.054,4.923,4.923,0,0,0-1.783-.647,8.437,8.437,0,0,1-2.019-.652,2.874,2.874,0,0,1-1.1-.9,2.164,2.164,0,0,1-.358-1.249,2.541,2.541,0,0,1,1.018-2.037,3.978,3.978,0,0,1,2.6-.833,4.092,4.092,0,0,1,2.7.86,2.731,2.731,0,0,1,1.036,2.2h-1.684a1.513,1.513,0,0,0-.584-1.186,2.188,2.188,0,0,0-1.471-.5,2.288,2.288,0,0,0-1.43.4,1.254,1.254,0,0,0-.516,1.041,1.015,1.015,0,0,0,.48.914,5.9,5.9,0,0,0,1.734.589,9.023,9.023,0,0,1,2.032.67,2.966,2.966,0,0,1,1.154.937,2.3,2.3,0,0,1,.376,1.335,2.507,2.507,0,0,1-1.05,2.1,4.4,4.4,0,0,1-2.725.792,4.931,4.931,0,0,1-2.082-.416,3.384,3.384,0,0,1-1.417-1.163,2.8,2.8,0,0,1-.512-1.616h1.675a1.735,1.735,0,0,0,.674,1.335,2.617,2.617,0,0,0,1.661.493,2.7,2.7,0,0,0,1.525-.385,1.182,1.182,0,0,0,.577-1.023Z" transform="translate(358.006 205.182)" fill="#12263f"/>
        <path id="Trazado_149816" data-name="Trazado 149816" d="M-279.879-191.806a1,1,0,0,1,.249-.688.935.935,0,0,1,.738-.28.949.949,0,0,1,.742.28.99.99,0,0,1,.254.688.957.957,0,0,1-.254.679.966.966,0,0,1-.742.272.952.952,0,0,1-.738-.272.966.966,0,0,1-.249-.679Zm1.81,12.392h-1.675v-9.794h1.675Z" transform="translate(329.238 214.945)" fill="#12263f"/>
        <path id="Trazado_149817" data-name="Trazado 149817" d="M-264.165-174.639a5.786,5.786,0,0,1,.566-2.589A4.218,4.218,0,0,1-262.024-179a4.287,4.287,0,0,1,2.3-.625,4.131,4.131,0,0,1,3.236,1.385,5.328,5.328,0,0,1,1.235,3.684v.118a5.834,5.834,0,0,1-.548,2.566,4.156,4.156,0,0,1-1.566,1.77,4.335,4.335,0,0,1-2.34.634,4.12,4.12,0,0,1-3.227-1.385,5.3,5.3,0,0,1-1.236-3.666Zm1.684.2a4.19,4.19,0,0,0,.756,2.616,2.419,2.419,0,0,0,2.023.987,2.4,2.4,0,0,0,2.028-1,4.581,4.581,0,0,0,.751-2.8,4.183,4.183,0,0,0-.765-2.611,2.432,2.432,0,0,0-2.032-1,2.4,2.4,0,0,0-2,.987,4.547,4.547,0,0,0-.761,2.821Z" transform="translate(317.57 205.182)" fill="#12263f"/>
        <path id="Trazado_149818" data-name="Trazado 149818" d="M-219.8-179.445l.054,1.231a3.569,3.569,0,0,1,2.933-1.412q3.1,0,3.132,3.5v6.472h-1.675v-6.481a2.256,2.256,0,0,0-.484-1.566,1.941,1.941,0,0,0-1.48-.507,2.417,2.417,0,0,0-1.43.434,2.948,2.948,0,0,0-.959,1.141v6.979h-1.675v-9.794Z" transform="translate(285.8 205.182)" fill="#12263f"/>
        <path id="Trazado_149819" data-name="Trazado 149819" d="M-181.618-191.806a1,1,0,0,1,.249-.688.935.935,0,0,1,.738-.28.949.949,0,0,1,.742.28.99.99,0,0,1,.254.688.957.957,0,0,1-.254.679.966.966,0,0,1-.742.272.952.952,0,0,1-.738-.272A.966.966,0,0,1-181.618-191.806Zm1.811,12.392h-1.675v-9.794h1.675Z" transform="translate(256.277 214.945)" fill="#12263f"/>
        <path id="Trazado_149820" data-name="Trazado 149820" d="M-159.652-172.249a1.233,1.233,0,0,0-.511-1.054,4.919,4.919,0,0,0-1.783-.647,8.437,8.437,0,0,1-2.019-.652,2.876,2.876,0,0,1-1.1-.9,2.164,2.164,0,0,1-.357-1.249,2.541,2.541,0,0,1,1.018-2.037,3.977,3.977,0,0,1,2.6-.833,4.092,4.092,0,0,1,2.7.86,2.731,2.731,0,0,1,1.037,2.2h-1.684a1.512,1.512,0,0,0-.584-1.186,2.188,2.188,0,0,0-1.471-.5,2.288,2.288,0,0,0-1.43.4,1.254,1.254,0,0,0-.516,1.041,1.015,1.015,0,0,0,.48.914,5.9,5.9,0,0,0,1.733.589,9.025,9.025,0,0,1,2.032.67,2.964,2.964,0,0,1,1.154.937,2.3,2.3,0,0,1,.376,1.335,2.506,2.506,0,0,1-1.05,2.1,4.4,4.4,0,0,1-2.725.792,4.932,4.932,0,0,1-2.082-.416,3.386,3.386,0,0,1-1.417-1.163,2.8,2.8,0,0,1-.511-1.616h1.675a1.733,1.733,0,0,0,.674,1.335,2.616,2.616,0,0,0,1.661.493,2.7,2.7,0,0,0,1.525-.385A1.182,1.182,0,0,0-159.652-172.249Z" transform="translate(244.503 205.182)" fill="#12263f"/>
        <path id="Trazado_149821" data-name="Trazado 149821" d="M-128.2-188.134v2.372h1.829v1.294H-128.2v6.081a1.359,1.359,0,0,0,.244.884,1.029,1.029,0,0,0,.833.295,4.06,4.06,0,0,0,.8-.109v1.35a4.871,4.871,0,0,1-1.285.18,2.086,2.086,0,0,1-1.693-.679,2.916,2.916,0,0,1-.57-1.928v-6.074h-1.783v-1.294h1.783v-2.372Z" transform="translate(219.182 211.5)" fill="#12263f"/>
        <path id="Trazado_149822" data-name="Trazado 149822" d="M-98.3-169.651a3.515,3.515,0,0,1-.235-1.032,3.736,3.736,0,0,1-2.788,1.213,3.457,3.457,0,0,1-2.376-.819,2.65,2.65,0,0,1-.928-2.078,2.768,2.768,0,0,1,1.163-2.376,5.482,5.482,0,0,1,3.272-.846h1.629v-.77a1.881,1.881,0,0,0-.525-1.4,2.109,2.109,0,0,0-1.548-.521,2.442,2.442,0,0,0-1.5.453,1.334,1.334,0,0,0-.606,1.1h-1.684a2.311,2.311,0,0,1,.52-1.417,3.553,3.553,0,0,1,1.412-1.082,4.751,4.751,0,0,1,1.96-.4,3.873,3.873,0,0,1,2.652.846,3.054,3.054,0,0,1,1,2.331v4.508a5.51,5.51,0,0,0,.344,2.145v.145Zm-2.779-1.276a2.944,2.944,0,0,0,1.495-.407,2.466,2.466,0,0,0,1.022-1.059v-2.01h-1.312q-3.078,0-3.078,1.8a1.525,1.525,0,0,0,.525,1.231,2.019,2.019,0,0,0,1.35.445Z" transform="translate(199.107 205.182)" fill="#12263f"/>
      </g>
      <g id="Grupo_93725" data-name="Grupo 93725" transform="translate(270.48 43.103)">
        <path id="Trazado_149823" data-name="Trazado 149823" d="M589.066-262.892h-1.747l-6.635-10.156v10.156h-1.747v-13.179h1.747l6.653,10.2v-10.2h1.729Z" transform="translate(-578.937 276.795)" fill="#12263f"/>
        <path id="Trazado_149824" data-name="Trazado 149824" d="M632.083-253.47a4.279,4.279,0,0,1-3.24-1.308,4.855,4.855,0,0,1-1.249-3.5v-.308a5.874,5.874,0,0,1,.557-2.6,4.34,4.34,0,0,1,1.557-1.792,3.913,3.913,0,0,1,2.168-.647,3.668,3.668,0,0,1,2.969,1.258,5.448,5.448,0,0,1,1.059,3.6v.7h-6.635a3.479,3.479,0,0,0,.846,2.34,2.66,2.66,0,0,0,2.059.892,2.916,2.916,0,0,0,1.5-.362,3.775,3.775,0,0,0,1.077-.959l1.023.8a4.113,4.113,0,0,1-3.691,1.886Zm-.208-8.78a2.234,2.234,0,0,0-1.7.738,3.585,3.585,0,0,0-.851,2.068h4.906v-.127a3.19,3.19,0,0,0-.688-1.978,2.1,2.1,0,0,0-1.667-.7Z" transform="translate(-615.066 267.555)" fill="#12263f"/>
        <path id="Trazado_149825" data-name="Trazado 149825" d="M670.066-254.837a2.411,2.411,0,0,0,1.566-.543,1.911,1.911,0,0,0,.742-1.358h1.584a3.043,3.043,0,0,1-.579,1.6,3.823,3.823,0,0,1-1.426,1.213,4.117,4.117,0,0,1-1.888.452,4.034,4.034,0,0,1-3.182-1.335,5.318,5.318,0,0,1-1.181-3.652v-.281a5.9,5.9,0,0,1,.525-2.544,4,4,0,0,1,1.507-1.729,4.28,4.28,0,0,1,2.322-.616,3.928,3.928,0,0,1,2.738.987,3.528,3.528,0,0,1,1.163,2.562h-1.584a2.309,2.309,0,0,0-.72-1.561,2.238,2.238,0,0,0-1.6-.611,2.343,2.343,0,0,0-1.978.919,4.313,4.313,0,0,0-.7,2.657v.317a4.225,4.225,0,0,0,.7,2.607,2.355,2.355,0,0,0,1.991.916Z" transform="translate(-643.363 267.555)" fill="#12263f"/>
        <path id="Trazado_149826" data-name="Trazado 149826" d="M707.916-253.47a4.279,4.279,0,0,1-3.24-1.308,4.855,4.855,0,0,1-1.249-3.5v-.308a5.876,5.876,0,0,1,.557-2.6,4.34,4.34,0,0,1,1.557-1.792,3.912,3.912,0,0,1,2.168-.647,3.668,3.668,0,0,1,2.969,1.258,5.448,5.448,0,0,1,1.059,3.6v.7H705.1a3.479,3.479,0,0,0,.846,2.34,2.66,2.66,0,0,0,2.059.892,2.916,2.916,0,0,0,1.5-.362,3.769,3.769,0,0,0,1.077-.959l1.023.8a4.113,4.113,0,0,1-3.689,1.886Zm-.208-8.78a2.234,2.234,0,0,0-1.7.738,3.585,3.585,0,0,0-.851,2.068h4.906v-.127a3.19,3.19,0,0,0-.688-1.978,2.1,2.1,0,0,0-1.667-.7Z" transform="translate(-671.374 267.555)" fill="#12263f"/>
        <path id="Trazado_149827" data-name="Trazado 149827" d="M747.751-256.249a1.233,1.233,0,0,0-.511-1.054,4.921,4.921,0,0,0-1.783-.647,8.436,8.436,0,0,1-2.019-.652,2.875,2.875,0,0,1-1.1-.9,2.162,2.162,0,0,1-.358-1.249A2.541,2.541,0,0,1,743-262.793a3.978,3.978,0,0,1,2.6-.833,4.093,4.093,0,0,1,2.7.86,2.73,2.73,0,0,1,1.036,2.2H747.65a1.512,1.512,0,0,0-.584-1.186,2.188,2.188,0,0,0-1.471-.5,2.288,2.288,0,0,0-1.43.4,1.254,1.254,0,0,0-.516,1.041,1.014,1.014,0,0,0,.48.914,5.9,5.9,0,0,0,1.733.589,9.029,9.029,0,0,1,2.032.67,2.966,2.966,0,0,1,1.154.937,2.3,2.3,0,0,1,.376,1.335,2.506,2.506,0,0,1-1.05,2.1,4.4,4.4,0,0,1-2.725.792,4.932,4.932,0,0,1-2.082-.416,3.383,3.383,0,0,1-1.417-1.163,2.8,2.8,0,0,1-.511-1.616h1.675a1.733,1.733,0,0,0,.674,1.335,2.616,2.616,0,0,0,1.661.493,2.7,2.7,0,0,0,1.525-.385,1.183,1.183,0,0,0,.577-1.023Z" transform="translate(-699.749 267.555)" fill="#12263f"/>
        <path id="Trazado_149828" data-name="Trazado 149828" d="M780.383-275.806a1,1,0,0,1,.249-.688.935.935,0,0,1,.738-.28.95.95,0,0,1,.742.28.991.991,0,0,1,.253.688.958.958,0,0,1-.253.679.967.967,0,0,1-.742.272.951.951,0,0,1-.738-.272.965.965,0,0,1-.249-.679Zm1.81,12.392h-1.675v-9.794h1.675Z" transform="translate(-728.516 277.317)" fill="#12263f"/>
        <path id="Trazado_149829" data-name="Trazado 149829" d="M796.238-269.959a5.737,5.737,0,0,1,1.068-3.625,3.376,3.376,0,0,1,2.8-1.371,3.4,3.4,0,0,1,2.725,1.177v-5.105H804.5v13.9h-1.539l-.081-1.05a3.41,3.41,0,0,1-2.8,1.231A3.345,3.345,0,0,1,797.3-266.2a5.8,5.8,0,0,1-1.073-3.639Zm1.675.19a4.345,4.345,0,0,0,.688,2.607,2.224,2.224,0,0,0,1.9.941,2.443,2.443,0,0,0,2.326-1.43v-4.5a2.462,2.462,0,0,0-2.308-1.385,2.234,2.234,0,0,0-1.919.95,4.784,4.784,0,0,0-.687,2.817Z" transform="translate(-740.289 278.884)" fill="#12263f"/>
        <path id="Trazado_149830" data-name="Trazado 149830" d="M843.663-253.651a3.5,3.5,0,0,1-.235-1.032,3.736,3.736,0,0,1-2.788,1.213,3.458,3.458,0,0,1-2.376-.819,2.65,2.65,0,0,1-.928-2.078,2.768,2.768,0,0,1,1.163-2.376,5.481,5.481,0,0,1,3.272-.846h1.63v-.77a1.881,1.881,0,0,0-.525-1.4,2.11,2.11,0,0,0-1.548-.521,2.441,2.441,0,0,0-1.5.453,1.334,1.334,0,0,0-.607,1.1h-1.684a2.31,2.31,0,0,1,.521-1.417,3.555,3.555,0,0,1,1.412-1.082,4.753,4.753,0,0,1,1.96-.4,3.872,3.872,0,0,1,2.652.846,3.054,3.054,0,0,1,1,2.331v4.508a5.511,5.511,0,0,0,.344,2.145v.145Zm-2.779-1.276a2.942,2.942,0,0,0,1.494-.407,2.468,2.468,0,0,0,1.023-1.059v-2.01h-1.313q-3.078,0-3.078,1.8a1.525,1.525,0,0,0,.525,1.231,2.017,2.017,0,0,0,1.349.445Z" transform="translate(-770.805 267.555)" fill="#12263f"/>
        <path id="Trazado_149831" data-name="Trazado 149831" d="M876.008-269.959a5.738,5.738,0,0,1,1.068-3.625,3.377,3.377,0,0,1,2.8-1.371,3.4,3.4,0,0,1,2.725,1.177v-5.105h1.674v13.9h-1.539l-.082-1.05a3.409,3.409,0,0,1-2.8,1.231,3.344,3.344,0,0,1-2.774-1.394,5.8,5.8,0,0,1-1.073-3.639Zm1.675.19a4.343,4.343,0,0,0,.688,2.607,2.223,2.223,0,0,0,1.9.941,2.444,2.444,0,0,0,2.327-1.43v-4.5a2.463,2.463,0,0,0-2.308-1.385,2.234,2.234,0,0,0-1.919.95,4.78,4.78,0,0,0-.688,2.817Z" transform="translate(-799.521 278.884)" fill="#12263f"/>
        <path id="Trazado_149832" data-name="Trazado 149832" d="M921.033-253.47a4.279,4.279,0,0,1-3.24-1.308,4.854,4.854,0,0,1-1.249-3.5v-.308a5.875,5.875,0,0,1,.557-2.6,4.341,4.341,0,0,1,1.557-1.792,3.914,3.914,0,0,1,2.168-.647,3.668,3.668,0,0,1,2.969,1.258,5.448,5.448,0,0,1,1.059,3.6v.7h-6.635a3.48,3.48,0,0,0,.846,2.34,2.661,2.661,0,0,0,2.059.892,2.915,2.915,0,0,0,1.5-.362,3.775,3.775,0,0,0,1.077-.959l1.023.8a4.113,4.113,0,0,1-3.691,1.886Zm-.208-8.78a2.234,2.234,0,0,0-1.7.738,3.587,3.587,0,0,0-.851,2.068h4.906v-.127a3.192,3.192,0,0,0-.688-1.978A2.1,2.1,0,0,0,920.825-262.25Z" transform="translate(-829.619 267.555)" fill="#12263f"/>
        <path id="Trazado_149833" data-name="Trazado 149833" d="M960.868-256.249a1.233,1.233,0,0,0-.511-1.054,4.92,4.92,0,0,0-1.783-.647,8.434,8.434,0,0,1-2.019-.652,2.876,2.876,0,0,1-1.1-.905,2.165,2.165,0,0,1-.357-1.249,2.541,2.541,0,0,1,1.018-2.037,3.977,3.977,0,0,1,2.6-.833,4.092,4.092,0,0,1,2.7.86,2.731,2.731,0,0,1,1.036,2.2h-1.684a1.512,1.512,0,0,0-.584-1.186,2.187,2.187,0,0,0-1.471-.5,2.288,2.288,0,0,0-1.43.4,1.254,1.254,0,0,0-.516,1.041,1.015,1.015,0,0,0,.48.914,5.9,5.9,0,0,0,1.733.589,9.033,9.033,0,0,1,2.032.67,2.965,2.965,0,0,1,1.154.937,2.3,2.3,0,0,1,.376,1.335,2.506,2.506,0,0,1-1.05,2.1,4.4,4.4,0,0,1-2.724.792,4.932,4.932,0,0,1-2.082-.416,3.384,3.384,0,0,1-1.417-1.163,2.8,2.8,0,0,1-.511-1.616h1.675a1.733,1.733,0,0,0,.674,1.335,2.616,2.616,0,0,0,1.661.493,2.7,2.7,0,0,0,1.525-.385,1.183,1.183,0,0,0,.575-1.023Z" transform="translate(-857.995 267.555)" fill="#12263f"/>
        <path id="Trazado_149834" data-name="Trazado 149834" d="M650.644-177.942a5.022,5.022,0,0,0-.824-.063,2.206,2.206,0,0,0-2.236,1.4v6.952H645.91v-9.794h1.629l.027,1.132a2.607,2.607,0,0,1,2.335-1.313,1.711,1.711,0,0,1,.742.127Z" transform="translate(-628.666 205.182)" fill="#12263f"/>
        <path id="Trazado_149835" data-name="Trazado 149835" d="M673.111-169.47a4.278,4.278,0,0,1-3.24-1.308,4.853,4.853,0,0,1-1.249-3.5v-.308a5.877,5.877,0,0,1,.557-2.6,4.342,4.342,0,0,1,1.557-1.792,3.914,3.914,0,0,1,2.168-.647,3.668,3.668,0,0,1,2.969,1.258,5.448,5.448,0,0,1,1.059,3.6v.7H670.3a3.479,3.479,0,0,0,.846,2.34,2.661,2.661,0,0,0,2.059.892,2.916,2.916,0,0,0,1.5-.362,3.775,3.775,0,0,0,1.077-.959l1.023.8A4.112,4.112,0,0,1,673.111-169.47Zm-.208-8.78a2.233,2.233,0,0,0-1.7.738,3.585,3.585,0,0,0-.851,2.068h4.906v-.127a3.192,3.192,0,0,0-.688-1.978,2.1,2.1,0,0,0-1.67-.7Z" transform="translate(-645.53 205.182)" fill="#12263f"/>
        <path id="Trazado_149836" data-name="Trazado 149836" d="M711.093-170.837a2.412,2.412,0,0,0,1.566-.543,1.913,1.913,0,0,0,.742-1.358h1.584a3.039,3.039,0,0,1-.579,1.6,3.822,3.822,0,0,1-1.426,1.213,4.116,4.116,0,0,1-1.887.452,4.035,4.035,0,0,1-3.182-1.335,5.318,5.318,0,0,1-1.181-3.652v-.281a5.9,5.9,0,0,1,.525-2.544,4,4,0,0,1,1.507-1.729,4.281,4.281,0,0,1,2.322-.616,3.927,3.927,0,0,1,2.738.987,3.527,3.527,0,0,1,1.163,2.562H713.4a2.31,2.31,0,0,0-.72-1.561,2.239,2.239,0,0,0-1.6-.611,2.343,2.343,0,0,0-1.978.919,4.315,4.315,0,0,0-.7,2.657v.317a4.228,4.228,0,0,0,.7,2.607A2.355,2.355,0,0,0,711.093-170.837Z" transform="translate(-673.827 205.182)" fill="#12263f"/>
        <path id="Trazado_149837" data-name="Trazado 149837" d="M752.048-170.1a3.557,3.557,0,0,1-2.87,1.15,3.044,3.044,0,0,1-2.385-.91,3.934,3.934,0,0,1-.828-2.693v-6.372h1.675v6.327q0,2.227,1.81,2.227A2.507,2.507,0,0,0,752-171.8v-7.124h1.675v9.794h-1.593Z" transform="translate(-702.96 204.66)" fill="#12263f"/>
        <path id="Trazado_149838" data-name="Trazado 149838" d="M790.531-177.942a5.025,5.025,0,0,0-.824-.063,2.206,2.206,0,0,0-2.236,1.4v6.952H785.8v-9.794h1.629l.027,1.132a2.607,2.607,0,0,1,2.336-1.313,1.713,1.713,0,0,1,.742.127Z" transform="translate(-732.536 205.182)" fill="#12263f"/>
        <path id="Trazado_149839" data-name="Trazado 149839" d="M814.688-172.249a1.233,1.233,0,0,0-.512-1.054,4.922,4.922,0,0,0-1.783-.647,8.436,8.436,0,0,1-2.018-.652,2.872,2.872,0,0,1-1.1-.9,2.162,2.162,0,0,1-.358-1.249,2.541,2.541,0,0,1,1.018-2.037,3.977,3.977,0,0,1,2.6-.833,4.093,4.093,0,0,1,2.7.86,2.731,2.731,0,0,1,1.036,2.2h-1.684a1.512,1.512,0,0,0-.584-1.186,2.187,2.187,0,0,0-1.471-.5,2.287,2.287,0,0,0-1.43.4,1.254,1.254,0,0,0-.516,1.041,1.015,1.015,0,0,0,.48.914,5.9,5.9,0,0,0,1.734.589,9.028,9.028,0,0,1,2.032.67,2.966,2.966,0,0,1,1.154.937,2.306,2.306,0,0,1,.375,1.335,2.506,2.506,0,0,1-1.05,2.1,4.4,4.4,0,0,1-2.725.792,4.932,4.932,0,0,1-2.082-.416,3.388,3.388,0,0,1-1.417-1.163,2.8,2.8,0,0,1-.511-1.616h1.675a1.733,1.733,0,0,0,.674,1.335,2.617,2.617,0,0,0,1.661.493,2.7,2.7,0,0,0,1.525-.385A1.183,1.183,0,0,0,814.688-172.249Z" transform="translate(-749.452 205.182)" fill="#12263f"/>
        <path id="Trazado_149840" data-name="Trazado 149840" d="M845.562-174.639a5.786,5.786,0,0,1,.566-2.589A4.217,4.217,0,0,1,847.7-179a4.286,4.286,0,0,1,2.3-.625,4.131,4.131,0,0,1,3.236,1.385,5.328,5.328,0,0,1,1.235,3.684v.118a5.834,5.834,0,0,1-.548,2.566,4.156,4.156,0,0,1-1.566,1.77,4.335,4.335,0,0,1-2.34.634,4.12,4.12,0,0,1-3.227-1.385,5.3,5.3,0,0,1-1.236-3.666Zm1.684.2a4.191,4.191,0,0,0,.756,2.616,2.419,2.419,0,0,0,2.023.987,2.4,2.4,0,0,0,2.028-1,4.583,4.583,0,0,0,.751-2.8,4.182,4.182,0,0,0-.765-2.611,2.432,2.432,0,0,0-2.032-1,2.4,2.4,0,0,0-2,.987,4.547,4.547,0,0,0-.761,2.821Z" transform="translate(-776.914 205.182)" fill="#12263f"/>
        <path id="Trazado_149841" data-name="Trazado 149841" d="M892.876-172.249a1.233,1.233,0,0,0-.511-1.054,4.921,4.921,0,0,0-1.783-.647,8.435,8.435,0,0,1-2.019-.652,2.875,2.875,0,0,1-1.1-.9,2.162,2.162,0,0,1-.358-1.249,2.541,2.541,0,0,1,1.018-2.037,3.978,3.978,0,0,1,2.6-.833,4.093,4.093,0,0,1,2.7.86,2.731,2.731,0,0,1,1.036,2.2h-1.684a1.512,1.512,0,0,0-.584-1.186,2.188,2.188,0,0,0-1.471-.5,2.288,2.288,0,0,0-1.43.4,1.254,1.254,0,0,0-.516,1.041,1.014,1.014,0,0,0,.48.914,5.9,5.9,0,0,0,1.733.589,9.033,9.033,0,0,1,2.032.67,2.968,2.968,0,0,1,1.154.937,2.3,2.3,0,0,1,.376,1.335,2.506,2.506,0,0,1-1.05,2.1,4.4,4.4,0,0,1-2.724.792,4.931,4.931,0,0,1-2.082-.416,3.384,3.384,0,0,1-1.417-1.163,2.8,2.8,0,0,1-.511-1.616h1.675a1.733,1.733,0,0,0,.674,1.335,2.617,2.617,0,0,0,1.661.493,2.7,2.7,0,0,0,1.525-.385,1.182,1.182,0,0,0,.576-1.023Z" transform="translate(-807.509 205.182)" fill="#12263f"/>
      </g>
    </g>
    <g id="Grupo_93727" data-name="Grupo 93727" transform="translate(-401.092 -294.522)">
      <path id="Trazado_149842" data-name="Trazado 149842" d="M518.162,154.563a4.854,4.854,0,0,1-3.564.3,5.059,5.059,0,0,1-2.727-2.4,4.644,4.644,0,0,1-.45-4.076,6.736,6.736,0,0,1,3.152-3.482l1.093-.641a7.506,7.506,0,0,1,3.119-1.07,4.9,4.9,0,0,1,2.788.521,5.178,5.178,0,0,1,2.055,2.026,4.762,4.762,0,0,1,.693,3.5,4.908,4.908,0,0,1-2.052,2.915l-.884-1.507a3.789,3.789,0,0,0,1.476-2,2.972,2.972,0,0,0-.459-2.181,3.11,3.11,0,0,0-2.384-1.629,5.657,5.657,0,0,0-3.5.959l-1.1.646a5.816,5.816,0,0,0-2.492,2.5,2.9,2.9,0,0,0,.175,2.8,3.345,3.345,0,0,0,1.691,1.584,3.641,3.641,0,0,0,2.491-.271Z" transform="translate(-511.14 -143.169)" fill="#12263f"/>
      <path id="Trazado_149843" data-name="Trazado 149843" d="M536.185,189.006a5.781,5.781,0,0,1,2.519-.822,4.217,4.217,0,0,1,2.327.46,4.284,4.284,0,0,1,1.7,1.671,4.131,4.131,0,0,1,.444,3.492,5.329,5.329,0,0,1-2.552,2.93l-.1.06a5.836,5.836,0,0,1-2.49.826,4.159,4.159,0,0,1-2.319-.455,4.333,4.333,0,0,1-1.731-1.7,4.119,4.119,0,0,1-.439-3.484,5.3,5.3,0,0,1,2.536-2.921Zm.68,1.553a4.192,4.192,0,0,0-1.874,1.976,2.562,2.562,0,0,0,2.062,3.487,4.581,4.581,0,0,0,2.8-.77,4.18,4.18,0,0,0,1.865-1.981,2.431,2.431,0,0,0-.166-2.259,2.4,2.4,0,0,0-1.864-1.226,4.546,4.546,0,0,0-2.822.772Z" transform="translate(-527.626 -176.583)" fill="#12263f"/>
      <path id="Trazado_149844" data-name="Trazado 149844" d="M558.582,220.233l-1.034.67a3.569,3.569,0,0,1,2.7,1.815q1.572,2.678-1.436,4.474l-5.581,3.276-.848-1.444,5.59-3.28a2.253,2.253,0,0,0,1.1-1.21,1.94,1.94,0,0,0-.312-1.533,2.42,2.42,0,0,0-1.1-1.014,2.951,2.951,0,0,0-1.469-.25l-6.019,3.532-.848-1.444,8.447-4.957Z" transform="translate(-539.499 -199.377)" fill="#12263f"/>
      <path id="Trazado_149845" data-name="Trazado 149845" d="M583.732,250.94l-2.045,1.2.926,1.577-1.116.655-.926-1.577-5.245,3.078a1.36,1.36,0,0,0-.639.658,1.029,1.029,0,0,0,.168.867,4.059,4.059,0,0,0,.5.632l-1.164.683a4.854,4.854,0,0,1-.806-1.017,2.085,2.085,0,0,1-.271-1.8,2.914,2.914,0,0,1,1.374-1.468l5.238-3.074-.9-1.538,1.116-.655.9,1.538,2.045-1.2Z" transform="translate(-557.079 -221.869)" fill="#12263f"/>
      <path id="Trazado_149846" data-name="Trazado 149846" d="M590.892,278.258a5.022,5.022,0,0,0-.362-.743,2.207,2.207,0,0,0-2.342-1.218l-6,3.519-.848-1.444,8.447-4.957.825,1.4-.962.6a2.608,2.608,0,0,1,2.314,1.35,1.708,1.708,0,0,1,.266.7Z" transform="translate(-563.269 -239.88)" fill="#12263f"/>
      <path id="Trazado_149847" data-name="Trazado 149847" d="M598.39,306.309a3.515,3.515,0,0,1,.771-.725,3.736,3.736,0,0,1-2.457-1.79,3.459,3.459,0,0,1-.5-2.464,2.651,2.651,0,0,1,1.322-1.852,2.769,2.769,0,0,1,2.638-.2,5.481,5.481,0,0,1,2.386,2.394l.825,1.4.664-.39a1.881,1.881,0,0,0,.94-1.161,2.108,2.108,0,0,0-.335-1.6,2.444,2.444,0,0,0-1.151-1.067,1.333,1.333,0,0,0-1.252.031l-.852-1.452a2.308,2.308,0,0,1,1.485-.268,3.55,3.55,0,0,1,1.648.67,4.753,4.753,0,0,1,1.335,1.488,3.872,3.872,0,0,1,.612,2.716,3.053,3.053,0,0,1-1.506,2.039l-3.888,2.281a5.513,5.513,0,0,0-1.676,1.382l-.125.074Zm-.306-3.043a2.94,2.94,0,0,0,1.107,1.082,2.464,2.464,0,0,0,1.431.346l1.733-1.017-.664-1.132q-1.557-2.655-3.111-1.743a1.524,1.524,0,0,0-.8,1.076,2.017,2.017,0,0,0,.305,1.389Z" transform="translate(-574.262 -257.505)" fill="#12263f"/>
      <path id="Trazado_149848" data-name="Trazado 149848" d="M627.078,324.8l-2.045,1.2.925,1.577-1.116.655-.925-1.577-5.245,3.078a1.361,1.361,0,0,0-.638.658,1.029,1.029,0,0,0,.167.867,4.046,4.046,0,0,0,.5.632l-1.164.683a4.864,4.864,0,0,1-.806-1.017,2.085,2.085,0,0,1-.271-1.8,2.915,2.915,0,0,1,1.374-1.468l5.238-3.074-.9-1.538,1.116-.655.9,1.538,2.045-1.2Z" transform="translate(-589.264 -276.713)" fill="#12263f"/>
      <path id="Trazado_149849" data-name="Trazado 149849" d="M630.117,360.37a3.523,3.523,0,0,1,.771-.725,3.737,3.737,0,0,1-2.457-1.79,3.457,3.457,0,0,1-.5-2.464,2.649,2.649,0,0,1,1.322-1.852,2.769,2.769,0,0,1,2.638-.2,5.484,5.484,0,0,1,2.386,2.393l.825,1.4.663-.389a1.882,1.882,0,0,0,.941-1.161,2.111,2.111,0,0,0-.334-1.6,2.441,2.441,0,0,0-1.151-1.067,1.334,1.334,0,0,0-1.251.031l-.852-1.452a2.309,2.309,0,0,1,1.485-.268,3.554,3.554,0,0,1,1.648.67,4.754,4.754,0,0,1,1.336,1.489,3.874,3.874,0,0,1,.613,2.716,3.053,3.053,0,0,1-1.506,2.038l-3.888,2.282a5.5,5.5,0,0,0-1.676,1.382l-.125.073Zm-.306-3.043a2.939,2.939,0,0,0,1.107,1.082,2.465,2.465,0,0,0,1.431.346l1.733-1.017-.664-1.132q-1.557-2.654-3.111-1.743a1.526,1.526,0,0,0-.8,1.076,2.016,2.016,0,0,0,.3,1.389Z" transform="translate(-597.82 -297.647)" fill="#12263f"/>
      <path id="Trazado_149850" data-name="Trazado 149850" d="M650.921,392.125a2.413,2.413,0,0,0,1.261,1.076,1.912,1.912,0,0,0,1.547-.047l.8,1.366a3.041,3.041,0,0,1-1.675.312,3.823,3.823,0,0,1-1.768-.616,4.117,4.117,0,0,1-1.346-1.4,4.033,4.033,0,0,1-.459-3.419,5.317,5.317,0,0,1,2.552-2.868l.242-.142a5.9,5.9,0,0,1,2.46-.835,4,4,0,0,1,2.254.425,4.282,4.282,0,0,1,1.706,1.691,3.929,3.929,0,0,1,.535,2.861,3.527,3.527,0,0,1-1.62,2.3l-.8-1.366a2.31,2.31,0,0,0,.982-1.411,2.236,2.236,0,0,0-.282-1.687,2.344,2.344,0,0,0-1.793-1.24,4.318,4.318,0,0,0-2.647.74l-.273.16a4.227,4.227,0,0,0-1.9,1.92,2.355,2.355,0,0,0,.224,2.18Z" transform="translate(-613.57 -323.132)" fill="#12263f"/>
      <path id="Trazado_149851" data-name="Trazado 149851" d="M664.722,415.872l-.848-1.444,8.447-4.957.848,1.444Zm9.771-7.833a1,1,0,0,1,.719-.133.933.933,0,0,1,.615.494.949.949,0,0,1,.134.782,1.009,1.009,0,1,1-1.465-1.143Z" transform="translate(-624.549 -339.729)" fill="#12263f"/>
      <path id="Trazado_149852" data-name="Trazado 149852" d="M680.068,434.177a5.775,5.775,0,0,1,2.519-.822,4.215,4.215,0,0,1,2.327.46,4.287,4.287,0,0,1,1.7,1.671,4.131,4.131,0,0,1,.444,3.492,5.327,5.327,0,0,1-2.552,2.93l-.1.06a5.836,5.836,0,0,1-2.491.826,4.161,4.161,0,0,1-2.319-.455,4.334,4.334,0,0,1-1.731-1.7,4.121,4.121,0,0,1-.439-3.484,5.3,5.3,0,0,1,2.536-2.921Zm.68,1.553a4.192,4.192,0,0,0-1.874,1.976,2.561,2.561,0,0,0,2.062,3.487,4.581,4.581,0,0,0,2.8-.77,4.18,4.18,0,0,0,1.865-1.981,2.543,2.543,0,0,0-2.03-3.485,4.548,4.548,0,0,0-2.823.773Zm9.644-1.577,1.026,1.749-3.523-.745-.679-1.166Z" transform="translate(-634.463 -358.63)" fill="#12263f"/>
      <path id="Trazado_149853" data-name="Trazado 149853" d="M702.466,465.4l-1.035.67a3.57,3.57,0,0,1,2.7,1.815q1.572,2.678-1.436,4.474l-5.582,3.276-.848-1.444,5.589-3.28a2.252,2.252,0,0,0,1.106-1.21,1.939,1.939,0,0,0-.312-1.533,2.414,2.414,0,0,0-1.1-1.014,2.951,2.951,0,0,0-1.469-.25l-6.019,3.532L693.217,469l8.447-4.957Z" transform="translate(-646.337 -381.424)" fill="#12263f"/>
    </g>
    <g id="Grupo_93798" data-name="Grupo 93798" transform="translate(-717.408 -169.121)">
      <g id="Grupo_93752" data-name="Grupo 93752" transform="translate(371.334)">
        <g id="Grupo_93732" data-name="Grupo 93732" transform="translate(8.239 80.331)">
          <g id="Grupo_93728" data-name="Grupo 93728" transform="translate(0 8.239)">
            <path id="Trazado_149854" data-name="Trazado 149854" d="M779.481,974.22l-14.419,37.08h-8.239l14.418-37.076Z" transform="translate(-756.823 -974.22)" fill="#d3a06c"/>
          </g>
          <g id="Grupo_93729" data-name="Grupo 93729" transform="translate(28.837 8.239)">
            <path id="Trazado_149855" data-name="Trazado 149855" d="M868.823,974.22h8.239v37.08h-8.239Z" transform="translate(-868.823 -974.22)" fill="#d3a06c"/>
          </g>
          <g id="Grupo_93730" data-name="Grupo 93730" transform="translate(43.255 8.239)">
            <path id="Trazado_149856" data-name="Trazado 149856" d="M933.062,974.22l14.418,37.08h-8.239l-14.418-37.08Z" transform="translate(-924.823 -974.22)" fill="#d3a06c"/>
          </g>
          <g id="Grupo_93731" data-name="Grupo 93731" transform="translate(14.418)">
            <path id="Trazado_149857" data-name="Trazado 149857" d="M849.9,942.22v8.239H812.823V942.22Z" transform="translate(-812.823 -942.22)" fill="#d3a06c"/>
          </g>
        </g>
        <g id="Grupo_93733" data-name="Grupo 93733" transform="translate(2.06 72.092)">
          <path id="Trazado_149858" data-name="Trazado 149858" d="M811.094,910.22v8.239H732.823V910.22Z" transform="translate(-732.823 -910.22)" fill="#ff826e"/>
        </g>
        <g id="Grupo_93734" data-name="Grupo 93734" transform="translate(2.06 2.06)">
          <path id="Trazado_149859" data-name="Trazado 149859" d="M782.258,638.22l8.239,8.239h20.6V654.7H732.823v-8.239h20.6l8.239-8.239Z" transform="translate(-732.823 -638.22)" fill="#ff826e"/>
        </g>
        <g id="Grupo_93735" data-name="Grupo 93735" transform="translate(6.179 18.538)">
          <path id="Trazado_149860" data-name="Trazado 149860" d="M807.733,709.635a4.287,4.287,0,0,1,3.007-1.236,4.336,4.336,0,0,1,3.213,1.442l4.9,5.6V702.22h-70.03v53.554h70.032V730.027l-1.154-1.442-10.278-12.832a4.338,4.338,0,0,1-.927-2.657v-.453a4.286,4.286,0,0,1,1.237-3.008Z" transform="translate(-748.823 -702.22)" fill="#e6e9ed"/>
        </g>
        <g id="Grupo_93736" data-name="Grupo 93736" transform="translate(57.674 43.255)">
          <path id="Trazado_149861" data-name="Trazado 149861" d="M948.823,798.22a10.3,10.3,0,0,1,0,20.6Z" transform="translate(-948.823 -798.22)" fill="#fcd770"/>
        </g>
        <g id="Grupo_93737" data-name="Grupo 93737" transform="translate(47.375 53.554)">
          <path id="Trazado_149862" data-name="Trazado 149862" d="M919.122,838.22v10.3a10.3,10.3,0,0,1-10.3-10.3Z" transform="translate(-908.823 -838.22)" fill="#ffc729"/>
        </g>
        <g id="Grupo_93738" data-name="Grupo 93738" transform="translate(47.375 43.255)">
          <path id="Trazado_149863" data-name="Trazado 149863" d="M919.122,798.22v10.3h-10.3a10.3,10.3,0,0,1,10.3-10.3Z" transform="translate(-908.823 -798.22)" fill="#ef7385"/>
        </g>
        <g id="Grupo_93739" data-name="Grupo 93739" transform="translate(92.69 72.092)">
          <path id="Trazado_149864" data-name="Trazado 149864" d="M1097.182,910.22h-12.359v53.554h24.717V910.22Z" transform="translate(-1084.823 -910.22)" fill="#cf9e76"/>
        </g>
        <g id="Grupo_93740" data-name="Grupo 93740" transform="translate(75.058 38.806)">
          <path id="Trazado_149865" data-name="Trazado 149865" d="M1048.291,785.058a8.283,8.283,0,0,0,4.222-3.79l9.1,1.3a6.187,6.187,0,0,1,5.314,6.118v13.182h-8.239v12.359h-24.717v-20.6H1023.59a4.132,4.132,0,0,1-3.213-1.545l-2.884-3.6-1.153-1.442,7.313-6.1,2.08,2.39,14.418-2.06a8.283,8.283,0,0,0,4.222,3.79Z" transform="translate(-1016.343 -780.939)" fill="#e6e9ed"/>
        </g>
        <g id="Grupo_93741" data-name="Grupo 93741" transform="translate(100.929 42.925)">
          <path id="Trazado_149866" data-name="Trazado 149866" d="M1123,797.269l2.06,16.478-4.12,4.12-4.12-4.12,2.06-16.478.1-.33a5.972,5.972,0,0,0,3.914,0Z" transform="translate(-1116.823 -796.939)" fill="#ef7385"/>
        </g>
        <g id="Grupo_93742" data-name="Grupo 93742" transform="translate(117.407 59.733)">
          <path id="Trazado_149867" data-name="Trazado 149867" d="M1189.062,862.22v18.538a4.12,4.12,0,0,1-8.24,0V862.22Z" transform="translate(-1180.823 -862.22)" fill="#f0d0b4"/>
        </g>
        <g id="Grupo_93743" data-name="Grupo 93743" transform="translate(98.869 32.956)">
          <path id="Trazado_149868" data-name="Trazado 149868" d="M1121.182,758.22v6.18a8.282,8.282,0,0,1-4.222,3.79,5.973,5.973,0,0,1-3.915,0,8.284,8.284,0,0,1-4.222-3.79v-6.18a10.3,10.3,0,0,0,12.359,0Z" transform="translate(-1108.823 -758.22)" fill="#f0d0b4"/>
        </g>
        <g id="Grupo_93744" data-name="Grupo 93744" transform="translate(94.75 10.299)">
          <path id="Trazado_149869" data-name="Trazado 149869" d="M1113.421,680.519v4.12a10.3,10.3,0,0,1-20.6,0v-4.12a10.3,10.3,0,1,1,20.6,0Z" transform="translate(-1092.823 -670.22)" fill="#f0d0b4"/>
        </g>
        <g id="Grupo_93745" data-name="Grupo 93745" transform="translate(63.853 24.717)">
          <path id="Trazado_149870" data-name="Trazado 149870" d="M991.341,740.309l-7.313,6.1L973.75,733.573a4.338,4.338,0,0,1-.927-2.657v-.453a4.22,4.22,0,0,1,4.243-4.243,4.337,4.337,0,0,1,3.213,1.442l4.9,5.6v.021Z" transform="translate(-972.823 -726.22)" fill="#f0d0b4"/>
        </g>
        <g id="Grupo_93746" data-name="Grupo 93746" transform="translate(30.897 8.239)">
          <path id="Trazado_149871" data-name="Trazado 149871" d="M844.823,662.22h20.6v4.12h-20.6Z" transform="translate(-844.823 -662.22)"/>
        </g>
        <g id="Grupo_93747" data-name="Grupo 93747" transform="translate(12.359 24.717)">
          <path id="Trazado_149872" data-name="Trazado 149872" d="M797.54,726.22h-4.12v22.658H789.3V732.4h-4.12v16.478h-4.12v-10.3h-4.12v10.3h-4.12V753h28.84v-4.12h-4.12Z" transform="translate(-772.823 -726.22)"/>
        </g>
        <g id="Grupo_93748" data-name="Grupo 93748" transform="translate(12.359 55.614)">
          <path id="Trazado_149873" data-name="Trazado 149873" d="M772.823,846.22h4.12v4.12h-4.12Z" transform="translate(-772.823 -846.22)"/>
        </g>
        <g id="Grupo_93749" data-name="Grupo 93749" transform="translate(20.598 55.614)">
          <path id="Trazado_149874" data-name="Trazado 149874" d="M804.823,846.22h20.6v4.12h-20.6Z" transform="translate(-804.823 -846.22)"/>
        </g>
        <g id="Grupo_93750" data-name="Grupo 93750">
          <path id="Trazado_149875" data-name="Trazado 149875" d="M846.35,714.671a6.187,6.187,0,0,0,6.179-6.179V676.775a8.28,8.28,0,0,0-7.073-8.156l-7.345-1.049v-3.445a12.316,12.316,0,0,0,4.12-9.187v-4.12a12.359,12.359,0,1,0-24.718,0v4.12a12.323,12.323,0,0,0,4.12,9.187v3.445l-11.543,1.651-7.089-8.1h.094v-10.3h4.12V638.459h-21.8l-8.239-8.239h-22.3l-8.239,8.239h-21.8v12.359h4.12v49.435h-4.12v12.359h20.6V718.4L731.67,753.8h-6.83v4.12H852.529V753.8H844.29V714.291A6.09,6.09,0,0,0,846.35,714.671ZM831.822,689.21l-1.95,1.95-1.95-1.95,1.711-13.689c.08,0,.157.014.239.014s.159-.012.24-.014Zm-10.189-38.392a8.239,8.239,0,0,1,16.478,0v4.12a8.239,8.239,0,0,1-16.478,0Zm8.239,16.478a12.3,12.3,0,0,0,4.12-.721v2.215c-.511.788-1.93,2.626-4.12,2.626s-3.615-1.846-4.12-2.626v-2.215a12.3,12.3,0,0,0,4.119.725Zm-7.2,4.285a10.669,10.669,0,0,0,2.952,2.75L823.583,690.7l6.289,6.289,6.289-6.289-2.046-16.367a10.642,10.642,0,0,0,2.952-2.75l7.807,1.114a4.14,4.14,0,0,1,3.536,4.078v31.718a2.06,2.06,0,0,1-4.12,0V679.655h-4.12v20.6h-20.6v-20.6H807.134a2.054,2.054,0,0,1-1.608-.772L791.216,661a2.2,2.2,0,0,1-.48-1.37v-.436a2.191,2.191,0,0,1,3.839-1.444l13.883,15.867ZM759.839,720.85v32.956H744.313l12.816-32.956Zm4.12,0h4.12v32.956h-4.12Zm8.239,0h2.711l12.816,32.956H772.2Zm7.131,0h3.819l12.816,32.956h-3.819Zm7.287-2.447v-5.792h20.6V700.252H803.1V682.239a6.131,6.131,0,0,0,4.039,1.535h8.319v70.032h-15.07Zm32.956-14.031h8.239v49.435h-8.239Zm-90.63-61.793h19.391l8.239-8.239h18.892l8.239,8.239h19.391v4.12H728.943Zm4.12,8.239h65.913v5.7l-1.3-1.486a6.311,6.311,0,0,0-11.059,4.155v.436A6.34,6.34,0,0,0,788,663.566l10.977,13.722v22.964H733.062Zm-4.12,53.554h74.152v4.12H728.943Zm53.554,8.239v4.12H749.54v-4.12ZM748.89,720.85h3.819l-12.816,32.956h-3.819Zm83.042,32.956V704.372h8.239v49.435Z" transform="translate(-724.823 -630.22)"/>
        </g>
        <g id="Grupo_93751" data-name="Grupo 93751" transform="translate(45.315 41.195)">
          <path id="Trazado_149876" data-name="Trazado 149876" d="M913.182,790.22a12.359,12.359,0,1,0,12.359,12.359,12.359,12.359,0,0,0-12.359-12.359Zm-2.06,4.412v5.887h-5.887a8.227,8.227,0,0,1,5.887-5.887Zm-5.887,10.006h5.887v5.887a8.227,8.227,0,0,1-5.887-5.887Zm10.006,5.887V794.632a8.2,8.2,0,0,1,0,15.893Z" transform="translate(-900.823 -790.22)"/>
        </g>
      </g>
      <g id="Grupo_93791" data-name="Grupo 93791" transform="translate(0 45.315)">
        <g id="Grupo_93787" data-name="Grupo 93787" transform="translate(1.931 1.931)">
          <g id="Grupo_93753" data-name="Grupo 93753" transform="translate(82.105 18.492)">
            <path id="Trazado_149877" data-name="Trazado 149877" d="M-353.323,934.039V904.523a19.066,19.066,0,0,0-17.114-18.965c-.642-.065-1.292.093-1.95.093a18.648,18.648,0,0,0-13.3,5.592,18.648,18.648,0,0,0-5.33,13.408v29.26Z" transform="translate(391.018 -885.542)" fill="#855b51"/>
          </g>
          <g id="Grupo_93754" data-name="Grupo 93754" transform="translate(81.673 18.409)">
            <path id="Trazado_149878" data-name="Trazado 149878" d="M-371.574,885.331a19.065,19.065,0,0,0-17,18.953v29.3l-4.12.1v-29.4a19.064,19.064,0,0,1,19.062-19.063,18.8,18.8,0,0,1,2.061.111Z" transform="translate(392.697 -885.22)" fill="#724d44"/>
          </g>
          <g id="Grupo_93755" data-name="Grupo 93755" transform="translate(95.415 48.563)">
            <path id="Trazado_149879" data-name="Trazado 149879" d="M-328.681,1031.5v-19.975l-.79-2.334.79-6.856h-10.641l.451,10.846-.451,3.6V1031.5l5.319.8Z" transform="translate(339.322 -1002.336)" fill="#c48958"/>
          </g>
          <g id="Grupo_93756" data-name="Grupo 93756" transform="translate(84.751 59.911)">
            <path id="Trazado_149880" data-name="Trazado 149880" d="M-370.284,1046.411l-10.458,4.14,1.27,14.477h14.713l-.768-.845c-3.665-4.033-4.379-9.243-4.518-14.67-.03-1.194-.239-1.9-.239-3.1Z" transform="translate(380.742 -1046.411)" fill="#ffd163"/>
          </g>
          <g id="Grupo_93757" data-name="Grupo 93757" transform="translate(84.729 59.409)">
            <path id="Trazado_149881" data-name="Trazado 149881" d="M-370.106,1048.065l-.033.013-10.381,4.266-.306-3.491,10.688-4.392.449,1.8Z" transform="translate(380.827 -1044.46)" fill="#ffb65f"/>
          </g>
          <g id="Grupo_93758" data-name="Grupo 93758" transform="translate(100.734 59.409)">
            <path id="Trazado_149882" data-name="Trazado 149882" d="M-302.422,1048.959l-10.921-4.5c0,6.594-.071,13.376-4.59,18.32l-.732.8h17.654a2.577,2.577,0,0,0,2.577-2.577v-6.086A6.443,6.443,0,0,0-302.422,1048.959Z" transform="translate(318.665 -1044.459)" fill="#ffd163"/>
          </g>
          <g id="Grupo_93759" data-name="Grupo 93759" transform="translate(95.414 48.564)">
            <path id="Trazado_149883" data-name="Trazado 149883" d="M-339.323,1002.339h0v9.175s0,4.08.033,5.275l2.675-1.1a1.03,1.03,0,0,0,.638-.953v-1.143a.514.514,0,0,1,.183-.391.514.514,0,0,1,.417-.114,8.19,8.19,0,0,0,1.366.117,10.063,10.063,0,0,0,5.322-1.676v-9.189h-10.637Z" transform="translate(339.325 -1002.339)" fill="#b27a49"/>
          </g>
          <g id="Grupo_93760" data-name="Grupo 93760" transform="translate(89.117 26.834)">
            <path id="Trazado_149884" data-name="Trazado 149884" d="M-363.586,930.882a13.018,13.018,0,0,0-.138,2.591c1.408,6.842,6.955,13.717,11.558,13.717,5.322,0,11.9-9.177,11.9-16.878,0-4.766-1.607-8.973-4.658-11.488-.635-.523-1.157-.475-1.916-.841a.415.415,0,0,0-.358,0,.415.415,0,0,0-.226.278,16.031,16.031,0,0,1-12.126,11.57l-3.706.642C-363.453,930.513-363.586,930.882-363.586,930.882Z" transform="translate(363.783 -917.943)" fill="#c48958"/>
          </g>
          <g id="Grupo_93761" data-name="Grupo 93761" transform="translate(88.842 26.336)">
            <path id="Trazado_149885" data-name="Trazado 149885" d="M-359.573,930.94a18.5,18.5,0,0,0,13.849-13.55,10.391,10.391,0,0,0-2.089-1.341.416.416,0,0,0-.358,0,.416.416,0,0,0-.226.277,15.963,15.963,0,0,1-12.039,11.6l-4.09.875a.412.412,0,0,0-.326.408h0a15.99,15.99,0,0,0,.335,2.821Z" transform="translate(364.852 -916.007)" fill="#b27a49"/>
          </g>
          <g id="Grupo_93762" data-name="Grupo 93762" transform="translate(0.257 59.868)">
            <path id="Trazado_149886" data-name="Trazado 149886" d="M-668.7,1051.925l-14.909-5.312c-2.807,3.24-7.67,2.868-10.475-.373l-10.762,4.473a5.94,5.94,0,0,0-4.055,5.526v5.828a2.577,2.577,0,0,0,2.577,2.577l.512.257h11.56l5.152-.66,5.489.66h9.511l5.4-.956Z" transform="translate(708.907 -1046.241)" fill="#bae6ef"/>
          </g>
          <g id="Grupo_93763" data-name="Grupo 93763" transform="translate(15.425 51.141)">
            <path id="Trazado_149887" data-name="Trazado 149887" d="M-640.246,1012.346H-650l.044,7.741c.926,1.069,1.537,2.317,2.787,2.681a7.033,7.033,0,0,0,7.291-2.147h0v-4.088Z" transform="translate(649.997 -1012.346)" fill="#f2d1a5"/>
          </g>
          <g id="Grupo_93764" data-name="Grupo 93764" transform="translate(0 59.868)">
            <path id="Trazado_149888" data-name="Trazado 149888" d="M-692.641,1047.972l-11.212,5.075-.791.331a3.082,3.082,0,0,0-1.916,2.86v8.664h-.77a2.577,2.577,0,0,1-2.577-2.577v-6.087a6.443,6.443,0,0,1,3.988-5.955l10.429-4.042a14.512,14.512,0,0,0,2.849,1.731Z" transform="translate(709.907 -1046.241)" fill="#94d8e6"/>
          </g>
          <g id="Grupo_93765" data-name="Grupo 93765" transform="translate(4.337 59.409)">
            <path id="Trazado_149889" data-name="Trazado 149889" d="M-659.692,1049.468l-12.158,14.112h-10.641l-8.853-11.856-1.717-2.62,5.829-2.027,4.744-2.617a7.037,7.037,0,0,0,5.319,2.43,7.037,7.037,0,0,0,5.32-2.43h0Z" transform="translate(693.061 -1044.46)" fill="#f8f7f7"/>
          </g>
          <g id="Grupo_93766" data-name="Grupo 93766" transform="translate(14.91 51.142)">
            <path id="Trazado_149890" data-name="Trazado 149890" d="M-648.65,1012.35H-652v8.794l2.66,1.655a3.954,3.954,0,0,1,.687-.034v-4.3a.514.514,0,0,1,.18-.39.514.514,0,0,1,.414-.117,8.953,8.953,0,0,0,1.376.108,10.894,10.894,0,0,0,5.322-1.532v-4.181Z" transform="translate(651.997 -1012.35)" fill="#f2bb88"/>
          </g>
          <g id="Grupo_93768" data-name="Grupo 93768" transform="translate(3.991 59.409)">
            <g id="Grupo_93767" data-name="Grupo 93767">
              <path id="Trazado_149891" data-name="Trazado 149891" d="M-680.14,1046.61h0l-12.2,5.111-2.062-2.763,10.919-4.5a6.747,6.747,0,0,0,3.343,2.152Z" transform="translate(694.407 -1044.46)" fill="#e8e8e8"/>
            </g>
          </g>
          <g id="Grupo_93769" data-name="Grupo 93769" transform="translate(7.974 23.668)">
            <path id="Trazado_149892" data-name="Trazado 149892" d="M-654.429,918.683c0-8.1-4.156-13.037-12.254-13.037s-12.254,4.939-12.254,13.037a16.533,16.533,0,0,0,.59,5.124c2.015,6.263,7.251,11.678,11.663,11.678,4.375,0,9.555-5.318,11.608-11.507a16.618,16.618,0,0,0,.646-5.295Z" transform="translate(678.937 -905.646)" fill="#f2d1a5"/>
          </g>
          <g id="Grupo_93770" data-name="Grupo 93770" transform="translate(7.717 23.668)">
            <path id="Trazado_149893" data-name="Trazado 149893" d="M-660.51,907.268a8.3,8.3,0,0,0-2.345.6l-.01.026a4.936,4.936,0,0,0-.5-1.769,16.159,16.159,0,0,0-4.062-.485c-8.1,0-12.511,4.939-12.511,13.037a16.826,16.826,0,0,0,.851,5.123c.179-.163.374-.346.585-.562,1.6-1.637,4.3-4.353,7.481-5.741,1.945-.849,3.591-1.083,4.864-2.191a.517.517,0,0,1,.425-.125.517.517,0,0,1,.366.251,12.308,12.308,0,0,0,4.476,3.913,16.824,16.824,0,0,1,5.071,4.626,16.916,16.916,0,0,0,.9-5.295c0-5.364-1.938-9.339-5.6-11.414Z" transform="translate(679.936 -905.645)" fill="#f2bb88"/>
          </g>
          <g id="Grupo_93771" data-name="Grupo 93771" transform="translate(22.656 21.888)">
            <path id="Trazado_149894" data-name="Trazado 149894" d="M-619.751,899.674a8.519,8.519,0,0,1,3.252-.941,7.305,7.305,0,0,1,5.34,2.052c4.871,4.932,2.314,12.538.443,15.877a.515.515,0,0,1-.394.262.515.515,0,0,1-.442-.17,31.6,31.6,0,0,0-6.333-5.462,11.913,11.913,0,0,1-2.583-2.219,9.2,9.2,0,0,1-1.445-3.232Z" transform="translate(621.913 -898.733)" fill="#8e868e"/>
          </g>
          <g id="Grupo_93772" data-name="Grupo 93772" transform="translate(22.305 21.888)">
            <path id="Trazado_149895" data-name="Trazado 149895" d="M-618.03,903.563a14.463,14.463,0,0,1-3.448,5.5,9.294,9.294,0,0,1-1.8-3.023l2.492-6.653a8.583,8.583,0,0,1,3.272-.662,10.6,10.6,0,0,1-.518,4.833Z" transform="translate(623.277 -898.73)" fill="#766d78"/>
          </g>
          <g id="Grupo_93773" data-name="Grupo 93773" transform="translate(4.902 17.882)">
            <path id="Trazado_149896" data-name="Trazado 149896" d="M-671.686,885.734a5.966,5.966,0,0,0-4.242-2.467c-2.991-.476-6.726.905-10.158,3.413-6.47,4.729-5.146,13.992-3.117,18.1a.516.516,0,0,0,.42.289.516.516,0,0,0,.463-.212c.354-.488.915-.848,1.7-1.652a20.78,20.78,0,0,1,7.739-4.969C-672.39,895.881-669.471,889.194-671.686,885.734Z" transform="translate(690.869 -883.174)" fill="#8e868e"/>
          </g>
          <g id="Grupo_93774" data-name="Grupo 93774" transform="translate(4.841 17.855)">
            <path id="Trazado_149897" data-name="Trazado 149897" d="M-676.075,883.193a15.786,15.786,0,0,0-6.983,2.938c-5.613,4.1-5.255,12.232-3.736,17a17.664,17.664,0,0,0-1.7,2,.517.517,0,0,1-.463.211.517.517,0,0,1-.42-.288c-2.029-4.115-3.494-14.2,2.976-18.927A14.3,14.3,0,0,1-676.075,883.193Z" transform="translate(691.106 -883.066)" fill="#766d78"/>
          </g>
          <g id="Grupo_93775" data-name="Grupo 93775" transform="translate(53.84 40.786)">
            <path id="Trazado_149898" data-name="Trazado 149898" d="M-487.4,972.131h-13.4l.634,8.936-.634,4.724h0a9.972,9.972,0,0,0,1.782,2.022,9.4,9.4,0,0,0,9.7.361c.779-.468,1.286-1.653,1.918-2.382h0v-5.676l-.542-.889Z" transform="translate(500.798 -972.131)" fill="#e3a76f"/>
          </g>
          <g id="Grupo_93776" data-name="Grupo 93776" transform="translate(35.576 55.2)">
            <path id="Trazado_149899" data-name="Trazado 149899" d="M-526.074,1033.125l-7.01-2.889-6.983-2.123c-3.535,4.081-9.868,4.449-13.4.367l-13.478,4.645a7.732,7.732,0,0,0-4.786,7.149l.258,10.653,2.574.515h16.916l5.475-1.241,4.852,1.241h20.371v-11.168a7.731,7.731,0,0,0-4.788-7.148Z" transform="translate(571.733 -1028.113)" fill="#ccf49f"/>
          </g>
          <g id="Grupo_93777" data-name="Grupo 93777" transform="translate(53.84 40.786)">
            <path id="Trazado_149900" data-name="Trazado 149900" d="M-497.45,972.13h-3.35v13.661c.42.485.231,1.3.721,1.673.558.421,1.8.378,2.425.649h0v-6.355a.515.515,0,0,1,.2-.4.515.515,0,0,1,.437-.1,13.466,13.466,0,0,0,2.921.445,14.685,14.685,0,0,0,6.7-1.589V972.13Z" transform="translate(500.797 -972.13)" fill="#d6995c"/>
          </g>
          <g id="Grupo_93778" data-name="Grupo 93778" transform="translate(35.06 54.696)">
            <path id="Trazado_149901" data-name="Trazado 149901" d="M-552.1,1028.23l-7.751,3.316-7.817,3.222a4.37,4.37,0,0,0-2.716,4.053v11.169h-3.347v-11.17a7.73,7.73,0,0,1,4.786-7.147l6.975-2.873,3.182-.983,3.7-1.66a7.615,7.615,0,0,0,2.991,2.074Z" transform="translate(573.737 -1026.156)" fill="#b3e59f"/>
          </g>
          <g id="Grupo_93779" data-name="Grupo 93779" transform="translate(47.111 54.448)">
            <path id="Trazado_149902" data-name="Trazado 149902" d="M-499.82,1028.066c-.167.2-.281.324-.291.337a35.73,35.73,0,0,0-8.283,20.582v.286h-10.327v-.185a35.719,35.719,0,0,0-6.382-18.258,30.722,30.722,0,0,0-1.753-2.561l-.077-.1,6.729-2.712a8.1,8.1,0,0,0,3.149,2.058,8.869,8.869,0,0,0,10.25-2.32h0Z" transform="translate(526.933 -1025.19)" fill="#f8f7f7"/>
          </g>
          <g id="Grupo_93780" data-name="Grupo 93780" transform="translate(46.821 54.448)">
            <path id="Trazado_149903" data-name="Trazado 149903" d="M-517.892,1027.512l-8.046,3.316q-.954-1.367-2.042-2.647l-.077-.1,7.019-2.891a8.849,8.849,0,0,0,2.08,1.766q.1.066.209.124a8.912,8.912,0,0,0,.857.432Z" transform="translate(528.057 -1025.19)" fill="#e8e8e8"/>
          </g>
          <g id="Grupo_93781" data-name="Grupo 93781" transform="translate(45.925 8.192)">
            <path id="Trazado_149904" data-name="Trazado 149904" d="M-502.347,863.008c0-9.7-4.878-17.47-14.576-17.47s-14.1,7.839-14.1,17.537c0,1.619-.74,3.313-.45,4.973,1.45,8.286,6.466,16.308,14.546,16.308,8.6,0,13.733-9.1,14.783-17.92a29.193,29.193,0,0,0-.206-3.429Z" transform="translate(531.536 -845.538)" fill="#e3a76f"/>
          </g>
          <g id="Grupo_93782" data-name="Grupo 93782" transform="translate(45.555 8.193)">
            <path id="Trazado_149905" data-name="Trazado 149905" d="M-503.007,863.1c0-7.092-2.829-13.2-8.14-15.969a.26.26,0,0,1-.323.073.26.26,0,0,1-.133-.3,14.783,14.783,0,0,0-6.388-1.361c-9.7,0-14.983,7.862-14.983,17.561a28.863,28.863,0,0,0,.438,4.95,6.893,6.893,0,0,1,.828-.794c2.537-2.387,6.177-2.473,6.565-4.969a.516.516,0,0,1,.226-.363.516.516,0,0,1,.422-.068c2.886.8,7.572-1.027,9.139-4.2a.514.514,0,0,1,.363-.273.514.514,0,0,1,.437.121,5.623,5.623,0,0,0,4.233,1.163.517.517,0,0,1,.544.345c1.457,4.259,5.452,2.7,6.566,7.427a28.275,28.275,0,0,0,.2-3.338Z" transform="translate(532.974 -845.539)" fill="#d6995c"/>
          </g>
          <g id="Grupo_93784" data-name="Grupo 93784" transform="translate(39.331)">
            <g id="Grupo_93783" data-name="Grupo 93783">
              <path id="Trazado_149906" data-name="Trazado 149906" d="M-519.631,826.284c-.135-.039-.387-.087-.6-.123a.255.255,0,0,1-.183-.132.255.255,0,0,1-.007-.225,5.4,5.4,0,0,0,.491-2.794,5.426,5.426,0,0,0-4.9-4.891,5.394,5.394,0,0,0-4.294,1.549.256.256,0,0,1-.256.066.256.256,0,0,1-.178-.2,6.566,6.566,0,0,0-6.442-5.3,6.535,6.535,0,0,0-4.123,1.458.259.259,0,0,1-.364-.036,5.387,5.387,0,0,0-4.139-1.937,5.406,5.406,0,0,0-5.357,4.682.258.258,0,0,1-.242.225,7.719,7.719,0,0,0-1.75.3,7.6,7.6,0,0,0-5.177,7.544,6.935,6.935,0,0,0,1.972,4.865.246.246,0,0,1,.065.182,22.9,22.9,0,0,0,.242,5.231,6.82,6.82,0,0,0,3.945,5.253,2.581,2.581,0,0,1,1.267-2.24c1.574-1.3,4.293-1.536,4.979-3.936a.251.251,0,0,1,.283-.184,13.216,13.216,0,0,0,1.833.217,9.27,9.27,0,0,0,8.653-5.946.247.247,0,0,1,.2-.155.247.247,0,0,1,.231.094,6.3,6.3,0,0,0,4.953,2.4,6.3,6.3,0,0,0,1.708-.235.254.254,0,0,1,.311.17c1.58,5.162,5.534,3.5,5.534,8.315,2.589-1.169,4.137-5.167,4.876-7.823a5.2,5.2,0,0,0-3.529-6.4Z" transform="translate(557.148 -813.72)" fill="#855b51"/>
            </g>
          </g>
          <g id="Grupo_93786" data-name="Grupo 93786" transform="translate(38.984 5.214)">
            <g id="Grupo_93785" data-name="Grupo 93785">
              <path id="Trazado_149907" data-name="Trazado 149907" d="M-550.66,854.8a3.09,3.09,0,0,0-1.119,2.558,7.4,7.4,0,0,1-4.4-5.432,23.254,23.254,0,0,1-.268-5.209.244.244,0,0,0-.064-.18,7.7,7.7,0,0,1-1.985-5.167,7.72,7.72,0,0,1,5.524-7.4,7.7,7.7,0,0,0-2.692,5.857,7.7,7.7,0,0,0,1.985,5.167.244.244,0,0,1,.064.18,23.261,23.261,0,0,0,.268,5.209,7.2,7.2,0,0,0,2.688,4.418Z" transform="translate(558.497 -833.97)" fill="#724d44"/>
            </g>
          </g>
        </g>
        <g id="Grupo_93790" data-name="Grupo 93790">
          <g id="Grupo_93789" data-name="Grupo 93789">
            <g id="Grupo_93788" data-name="Grupo 93788">
              <path id="Trazado_149908" data-name="Trazado 149908" d="M-593.746,873.752V845.624a21.019,21.019,0,0,0-20.995-20.995,21.056,21.056,0,0,0-9.581,2.31,1.931,1.931,0,0,0-.835,2.6,1.931,1.931,0,0,0,2.6.835,16.941,16.941,0,0,1,7.817-1.883,17.152,17.152,0,0,1,17.133,17.133v24.721c-.053-.023-.1-.049-.156-.071h0l-9.725-4.008v-3.775c3.716-3.711,6.574-9.661,6.574-15.135,0-7.05-3.139-12.59-8.4-14.819a1.934,1.934,0,0,0-1.5,0,2.009,2.009,0,0,0-1.144,1.37,13.93,13.93,0,0,1-10.67,10.619l-4.42.946a2.24,2.24,0,0,0-1.522,2.275A22.9,22.9,0,0,0-622,862.52v3.751l-7.682,3.166a9.615,9.615,0,0,0-2.2-1.986V845.624a17.024,17.024,0,0,1,3.094-9.823,1.931,1.931,0,0,0-.472-2.69,1.931,1.931,0,0,0-2.69.472,20.866,20.866,0,0,0-3.794,12.041v20.035L-646.3,861.3v-7.336c4.838-3.919,7.7-10.969,8.238-17.9,2.532-1.817,4.01-5.491,4.827-8.432a7.164,7.164,0,0,0-.94-5.9,7.078,7.078,0,0,0-2.908-2.5,7.4,7.4,0,0,0,.086-1.969,7.312,7.312,0,0,0-6.656-6.644,7.376,7.376,0,0,0-3.8.682,8.492,8.492,0,0,0-7.541-4.573,8.49,8.49,0,0,0-4.094,1.052,7.267,7.267,0,0,0-4.531-1.567,7.3,7.3,0,0,0-6.981,5.065,9.6,9.6,0,0,0-7.824,9.482,9.621,9.621,0,0,0,2.021,5.911,24.4,24.4,0,0,0,.329,5A9.188,9.188,0,0,0-671.565,838a31.653,31.653,0,0,0,.737,3.74,2.035,2.035,0,0,0,2.357,1.378,1.931,1.931,0,0,0,1.379-2.357,27.794,27.794,0,0,1-.74-4.011c-.085-.747.194-1.075,1.887-1.9a7.8,7.8,0,0,0,3.517-2.687,11.3,11.3,0,0,0,10.235-5,8.637,8.637,0,0,0,5.373,1.418,8.957,8.957,0,0,0,3.445,3.8c1.15.793,1.5,1.039,1.511,2.5-.4,9.025-5.393,18.344-13.075,18.344-4.245,0-7.1-2.7-8.739-4.96a1.931,1.931,0,0,0-1.261-.774,1.931,1.931,0,0,0-1.439.346,1.931,1.931,0,0,0-.774,1.261,1.931,1.931,0,0,0,.346,1.439,18.02,18.02,0,0,0,3.234,3.449V861.3l-12.8,5.273a9.652,9.652,0,0,0-3.862,2.89l-7.769-3.2v-5.938a22.486,22.486,0,0,0,6.269-9.822,1.929,1.929,0,0,0,1.352-.868c2.008-3.136,5.864-12.646-.318-18.906a9.58,9.58,0,0,0-8.668-2.438,6.1,6.1,0,0,0-.4-.744c-2.608-4.074-9.348-4.646-15.345-1.3a1.931,1.931,0,0,0-.746,2.627,1.931,1.931,0,0,0,2.627.746c4.5-2.509,8.911-2.021,10.211.01a4.212,4.212,0,0,1,.095,3.546,10.369,10.369,0,0,1-6.323,6.107A22.674,22.674,0,0,0-707.974,845a17.585,17.585,0,0,1-.147-9.493,1.931,1.931,0,0,0-1.292-2.406,1.931,1.931,0,0,0-2.406,1.292c-1.782,5.909-.036,12.687,1.7,15.407a1.93,1.93,0,0,0,1.4.875,22.548,22.548,0,0,0,6.217,9.639v5.953c-.177.078-9.646,3.965-9.834,4.057a8.344,8.344,0,0,0-5.076,7.694V884.1a4.514,4.514,0,0,0,4.508,4.509h115.811a4.513,4.513,0,0,0,4.508-4.508v-6.086a8.36,8.36,0,0,0-1.166-4.265ZM-643.72,825.86a1.931,1.931,0,0,0-.948-1.182,1.931,1.931,0,0,0-1.508-.135,4.372,4.372,0,0,1-1.352.214,4.378,4.378,0,0,1-3.627-1.926,1.931,1.931,0,0,0-1.866-.829,1.931,1.931,0,0,0-1.567,1.311,7.322,7.322,0,0,1-6.972,5.049,13.129,13.129,0,0,1-1.7-.223,1.932,1.932,0,0,0-2.248,1.481c-.167.756-.74,1.1-2.107,1.752a7.867,7.867,0,0,0-3.235,2.363,5.281,5.281,0,0,1-1.431-2.767,21.575,21.575,0,0,1-.234-4.8,1.931,1.931,0,0,0-.508-1.462,5.774,5.774,0,0,1-1.542-3.934,5.762,5.762,0,0,1,5.618-5.788,1.931,1.931,0,0,0,1.866-1.751,3.457,3.457,0,0,1,3.459-3.147,3.451,3.451,0,0,1,2.765,1.379,1.931,1.931,0,0,0,1.343.753,1.933,1.933,0,0,0,1.467-.469A4.628,4.628,0,0,1-655,810.6a4.627,4.627,0,0,1,4.6,4.1,1.931,1.931,0,0,0,1.367,1.633,1.929,1.929,0,0,0,2.038-.617A3.445,3.445,0,0,1-644,814.477a3.5,3.5,0,0,1,3.144,3.139,3.478,3.478,0,0,1-.413,1.992,1.931,1.931,0,0,0-.019,1.825,1.93,1.93,0,0,0,1.51,1.026,3.241,3.241,0,0,1,2.378,1.421,3.3,3.3,0,0,1,.432,2.722,18.226,18.226,0,0,1-1.959,4.746,7.488,7.488,0,0,0-2.264-2.134,5.162,5.162,0,0,1-2.536-3.35Zm21.9,22.438a17.808,17.808,0,0,0,12.9-11.085c2.626,2.05,4.14,5.681,4.14,10.143,0,6.93-6.03,14.946-9.965,14.946-3.646,0-9.091-6.825-9.871-13.4Zm-36.55,36.45a37.943,37.943,0,0,0-7.189-18.448l3.463-1.427a10.784,10.784,0,0,0,7.154,2.717h0a10.787,10.787,0,0,0,7.158-2.717l3.408,1.4a37.962,37.962,0,0,0-7.249,18.47Zm17.7-16.946,5.692,2.345a5.782,5.782,0,0,1,3.591,5.364v9.237h-16.339A34.047,34.047,0,0,1-640.67,867.8Zm-14.268-10.71a13.265,13.265,0,0,0,4.773-.873v5.606a6.928,6.928,0,0,1-4.77,1.9h0a6.928,6.928,0,0,1-4.769-1.9v-5.6a13.352,13.352,0,0,0,4.768.868Zm-27.409,27.656h-3.368l3.368-3.91Zm.023-9.854-8.488,9.854H-699.6l-8.853-11.852,7.445-3.068a8.963,8.963,0,0,0,5.759,2.1h0a8.961,8.961,0,0,0,5.76-2.1l7.5,3.089a9.672,9.672,0,0,0-.334,1.976Zm-1.117-41.447c3.361,3.4,2.3,8.566.977,11.8a32.68,32.68,0,0,0-5.289-4.277,9.313,9.313,0,0,1-3.179-3.316,12.6,12.6,0,0,0,1.666-3.238,10.047,10.047,0,0,0,.493-2.29,5.857,5.857,0,0,1,5.331,1.32Zm-22.023,14.52a18.755,18.755,0,0,1,7.538-5.051,15.206,15.206,0,0,0,4.243-2.366,13.459,13.459,0,0,0,3.848,3.675,28.991,28.991,0,0,1,4.766,3.885c-1.49,6.341-6.682,11.618-10.181,11.618s-8.768-5.368-10.215-11.76Zm10.215,15.622a8.693,8.693,0,0,0,3.391-.745v3.93a5.1,5.1,0,0,1-3.389,1.287h0a5.1,5.1,0,0,1-3.388-1.288v-3.935a8.647,8.647,0,0,0,3.388.751Zm-18.3,20.512v-6.085A4.5,4.5,0,0,1-712,874.61l7.572,10.138H-712.9a.647.647,0,0,1-.646-.648Zm35.061-8.59a5.782,5.782,0,0,1,3.591-5.364l5.644-2.325a34.035,34.035,0,0,1,6.992,16.926h-16.227Zm50.96,9.237v-9.237a9.7,9.7,0,0,0-.369-2.636l5.916-2.438c.075,4.865.526,9.978,3.232,14.311Zm9.394-17.193v-2.229a7.929,7.929,0,0,0,3.388.838,7.878,7.878,0,0,0,3.391-.841v2.241c0,5.8,0,11.775-3.389,16.182-3.388-4.4-3.39-10.386-3.39-16.187Zm21.688,16.547a.647.647,0,0,1-.646.646h-13.65c2.708-4.338,3.158-9.448,3.234-14.311l8.269,3.407h0a4.5,4.5,0,0,1,2.793,4.172Z" transform="translate(717.408 -806.22)"/>
            </g>
          </g>
        </g>
      </g>
      <g id="Grupo_93792" data-name="Grupo 93792" transform="translate(5.107 135.175)">
        <path id="Trazado_149909" data-name="Trazado 149909" d="M-683.969,1156.152v11.3a6.5,6.5,0,0,1-.818,3.326,5.3,5.3,0,0,1-2.348,2.14,8.269,8.269,0,0,1-3.617.735,7.145,7.145,0,0,1-4.969-1.636,5.837,5.837,0,0,1-1.85-4.482v-11.384h4.186v11.467q.071,2.834,2.633,2.834a2.549,2.549,0,0,0,1.956-.711,3.326,3.326,0,0,0,.664-2.312v-11.277Z" transform="translate(697.571 -1155.915)" fill="#12263f"/>
        <path id="Trazado_149910" data-name="Trazado 149910" d="M-627.325,1168.145a1.711,1.711,0,0,0-.646-1.423,8.035,8.035,0,0,0-2.271-1.055,21.7,21.7,0,0,1-2.656-1.055q-3.356-1.648-3.356-4.53a4.063,4.063,0,0,1,.836-2.532,5.408,5.408,0,0,1,2.366-1.707,9.2,9.2,0,0,1,3.439-.611,8.05,8.05,0,0,1,3.338.664,5.283,5.283,0,0,1,2.295,1.891,4.941,4.941,0,0,1,.818,2.8h-4.15a2.088,2.088,0,0,0-.646-1.636,2.52,2.52,0,0,0-1.749-.581,2.841,2.841,0,0,0-1.761.492,1.51,1.51,0,0,0-.646,1.251,1.521,1.521,0,0,0,.712,1.2,8.968,8.968,0,0,0,2.5,1.115,15.361,15.361,0,0,1,2.941,1.239,4.942,4.942,0,0,1,2.8,4.447,4.216,4.216,0,0,1-1.708,3.557,7.6,7.6,0,0,1-4.684,1.292,9.3,9.3,0,0,1-3.8-.753,5.727,5.727,0,0,1-2.561-2.063,5.373,5.373,0,0,1-.86-3.018h4.174a2.648,2.648,0,0,0,.717,2.045,3.392,3.392,0,0,0,2.33.658,2.679,2.679,0,0,0,1.631-.445A1.467,1.467,0,0,0-627.325,1168.145Z" transform="translate(652.429 -1155.231)" fill="#12263f"/>
        <path id="Trazado_149911" data-name="Trazado 149911" d="M-562.242,1156.152v11.3a6.5,6.5,0,0,1-.818,3.326,5.3,5.3,0,0,1-2.348,2.14,8.271,8.271,0,0,1-3.617.735,7.145,7.145,0,0,1-4.969-1.636,5.837,5.837,0,0,1-1.85-4.482v-11.384h4.186v11.467q.072,2.834,2.633,2.834a2.549,2.549,0,0,0,1.957-.711,3.326,3.326,0,0,0,.664-2.312v-11.277Z" transform="translate(607.185 -1155.915)" fill="#12263f"/>
        <path id="Trazado_149912" data-name="Trazado 149912" d="M-508,1170.192h-5.7l-1,3.225h-4.447l6.332-17.266h3.913l6.38,17.266h-4.47Zm-4.708-3.214H-509l-1.862-5.989Z" transform="translate(565.086 -1155.915)" fill="#12263f"/>
        <path id="Trazado_149913" data-name="Trazado 149913" d="M-443.278,1167.311h-2.253v6.107h-4.162v-17.266h6.8a7.585,7.585,0,0,1,4.8,1.362,4.616,4.616,0,0,1,1.731,3.85,5.605,5.605,0,0,1-.729,2.985,5.175,5.175,0,0,1-2.283,1.919l3.6,6.972v.178h-4.459Zm-2.253-3.2h2.633a2.363,2.363,0,0,0,1.785-.624,2.413,2.413,0,0,0,.6-1.742,2.44,2.44,0,0,0-.6-1.753,2.34,2.34,0,0,0-1.779-.636h-2.633Z" transform="translate(513.515 -1155.915)" fill="#12263f"/>
        <path id="Trazado_149914" data-name="Trazado 149914" d="M-382.907,1173.418h-4.15v-17.266h4.15Z" transform="translate(467.006 -1155.915)" fill="#12263f"/>
        <path id="Trazado_149915" data-name="Trazado 149915" d="M-346.48,1164.457a10.188,10.188,0,0,1-.937,4.471,6.926,6.926,0,0,1-2.662,2.994,7.415,7.415,0,0,1-3.931,1.049,7.517,7.517,0,0,1-3.913-1.014,6.91,6.91,0,0,1-2.662-2.9,9.883,9.883,0,0,1-1-4.328v-.973a10.226,10.226,0,0,1,.931-4.476,6.907,6.907,0,0,1,2.668-2.994,7.467,7.467,0,0,1,3.955-1.055,7.4,7.4,0,0,1,3.913,1.044,7.033,7.033,0,0,1,2.674,2.97,9.935,9.935,0,0,1,.967,4.417Zm-4.233-.723a7.26,7.26,0,0,0-.86-3.907,2.758,2.758,0,0,0-2.461-1.334q-3.131,0-3.309,4.7l-.012,1.269a7.465,7.465,0,0,0,.842,3.9,2.753,2.753,0,0,0,2.5,1.364,2.721,2.721,0,0,0,2.431-1.34,7.266,7.266,0,0,0,.866-3.854Z" transform="translate(448.093 -1155.231)" fill="#12263f"/>
        <path id="Trazado_149916" data-name="Trazado 149916" d="M-287.242,1168.145a1.711,1.711,0,0,0-.646-1.423,8.041,8.041,0,0,0-2.271-1.055,21.7,21.7,0,0,1-2.656-1.055q-3.356-1.648-3.356-4.53a4.064,4.064,0,0,1,.836-2.532,5.41,5.41,0,0,1,2.366-1.707,9.2,9.2,0,0,1,3.439-.611,8.049,8.049,0,0,1,3.338.664,5.284,5.284,0,0,1,2.294,1.891,4.94,4.94,0,0,1,.818,2.8h-4.15a2.087,2.087,0,0,0-.646-1.636,2.519,2.519,0,0,0-1.749-.581,2.84,2.84,0,0,0-1.761.492,1.509,1.509,0,0,0-.646,1.251,1.52,1.52,0,0,0,.711,1.2,8.965,8.965,0,0,0,2.5,1.115,15.335,15.335,0,0,1,2.941,1.239,4.943,4.943,0,0,1,2.8,4.447,4.216,4.216,0,0,1-1.708,3.557,7.6,7.6,0,0,1-4.684,1.292,9.292,9.292,0,0,1-3.8-.753,5.727,5.727,0,0,1-2.561-2.063,5.373,5.373,0,0,1-.86-3.018h4.174a2.648,2.648,0,0,0,.717,2.045,3.391,3.391,0,0,0,2.33.658,2.68,2.68,0,0,0,1.631-.445,1.467,1.467,0,0,0,.6-1.242Z" transform="translate(399.908 -1155.231)" fill="#12263f"/>
      </g>
      <g id="Grupo_93793" data-name="Grupo 93793" transform="translate(369.754 135.175)">
        <path id="Trazado_149917" data-name="Trazado 149917" d="M729.833,1170.192h-5.7l-1,3.225h-4.447l6.332-17.266h3.914l6.38,17.266h-4.47Zm-4.708-3.214h3.711l-1.862-5.989Z" transform="translate(-718.686 -1155.915)" fill="#12263f"/>
        <path id="Trazado_149918" data-name="Trazado 149918" d="M802.559,1173.418H798.42l-6.119-10.744v10.744h-4.162v-17.266H792.3l6.107,10.744v-10.744h4.151Z" transform="translate(-770.257 -1155.915)" fill="#12263f"/>
        <path id="Trazado_149919" data-name="Trazado 149919" d="M860.311,1170.192h-5.7l-1,3.225h-4.447l6.332-17.266h3.913l6.38,17.266h-4.471Zm-4.708-3.214h3.711l-1.862-5.989Z" transform="translate(-815.57 -1155.915)" fill="#12263f"/>
        <path id="Trazado_149920" data-name="Trazado 149920" d="M922.779,1170.216h7.246v3.2H918.617V1156.15h4.162Z" transform="translate(-867.14 -1155.915)" fill="#12263f"/>
        <path id="Trazado_149921" data-name="Trazado 149921" d="M975,1173.418h-4.15v-17.266H975Z" transform="translate(-905.922 -1155.915)" fill="#12263f"/>
        <path id="Trazado_149922" data-name="Trazado 149922" d="M1005.536,1168.145a1.711,1.711,0,0,0-.646-1.423,8.042,8.042,0,0,0-2.271-1.055,21.662,21.662,0,0,1-2.656-1.055q-3.357-1.648-3.356-4.53a4.063,4.063,0,0,1,.836-2.532,5.408,5.408,0,0,1,2.366-1.707,9.2,9.2,0,0,1,3.439-.611,8.053,8.053,0,0,1,3.338.664,5.286,5.286,0,0,1,2.294,1.891,4.939,4.939,0,0,1,.818,2.8h-4.15a2.087,2.087,0,0,0-.646-1.636,2.52,2.52,0,0,0-1.749-.581,2.839,2.839,0,0,0-1.761.492,1.449,1.449,0,0,0,.065,2.455,8.972,8.972,0,0,0,2.5,1.115,15.353,15.353,0,0,1,2.941,1.239,4.943,4.943,0,0,1,2.8,4.447,4.215,4.215,0,0,1-1.708,3.557,7.6,7.6,0,0,1-4.684,1.292,9.293,9.293,0,0,1-3.8-.753,5.727,5.727,0,0,1-2.561-2.063,5.372,5.372,0,0,1-.86-3.018h4.174a2.648,2.648,0,0,0,.717,2.045,3.391,3.391,0,0,0,2.33.658,2.68,2.68,0,0,0,1.63-.445,1.467,1.467,0,0,0,.6-1.246Z" transform="translate(-924.663 -1155.231)" fill="#12263f"/>
        <path id="Trazado_149923" data-name="Trazado 149923" d="M1068.272,1159.366h-5.182v14.052h-4.162v-14.052h-5.087v-3.214h14.432Z" transform="translate(-967.547 -1155.915)" fill="#12263f"/>
        <path id="Trazado_149924" data-name="Trazado 149924" d="M1117.123,1170.192h-5.7l-1,3.225h-4.447l6.332-17.266h3.913l6.38,17.266h-4.47Zm-4.708-3.214h3.712l-1.861-5.989Z" transform="translate(-1006.26 -1155.915)" fill="#12263f"/>
        <path id="Trazado_149925" data-name="Trazado 149925" d="M1182.762,1168.145a1.711,1.711,0,0,0-.646-1.423,8.042,8.042,0,0,0-2.271-1.055,21.7,21.7,0,0,1-2.656-1.055q-3.356-1.648-3.356-4.53a4.064,4.064,0,0,1,.836-2.532,5.411,5.411,0,0,1,2.366-1.707,9.2,9.2,0,0,1,3.439-.611,8.053,8.053,0,0,1,3.338.664,5.283,5.283,0,0,1,2.3,1.891,4.942,4.942,0,0,1,.818,2.8h-4.151a2.088,2.088,0,0,0-.646-1.636,2.52,2.52,0,0,0-1.749-.581,2.84,2.84,0,0,0-1.761.492,1.449,1.449,0,0,0,.065,2.455,8.966,8.966,0,0,0,2.5,1.115,15.354,15.354,0,0,1,2.941,1.239,4.942,4.942,0,0,1,2.8,4.447,4.216,4.216,0,0,1-1.708,3.557,7.6,7.6,0,0,1-4.684,1.292,9.3,9.3,0,0,1-3.8-.753,5.729,5.729,0,0,1-2.562-2.063,5.375,5.375,0,0,1-.859-3.018h4.174a2.648,2.648,0,0,0,.718,2.045,3.391,3.391,0,0,0,2.33.658,2.679,2.679,0,0,0,1.63-.445,1.467,1.467,0,0,0,.6-1.246Z" transform="translate(-1056.258 -1155.231)" fill="#12263f"/>
      </g>
      <g id="Grupo_93794" data-name="Grupo 93794" transform="translate(185.716 34.647)">
        <path id="Trazado_149926" data-name="Trazado 149926" d="M14.026,780.78H12.279L5.644,770.624V780.78H3.9V767.6H5.644L12.3,777.8V767.6h1.729Z" transform="translate(-3.897 -766.877)" fill="#12263f"/>
        <path id="Trazado_149927" data-name="Trazado 149927" d="M57.044,790.2a4.279,4.279,0,0,1-3.241-1.308,4.855,4.855,0,0,1-1.249-3.5v-.308a5.874,5.874,0,0,1,.557-2.6,4.341,4.341,0,0,1,1.557-1.792,3.913,3.913,0,0,1,2.168-.647A3.668,3.668,0,0,1,59.8,781.3a5.447,5.447,0,0,1,1.059,3.6v.7h-6.63a3.48,3.48,0,0,0,.846,2.34,2.66,2.66,0,0,0,2.059.892,2.916,2.916,0,0,0,1.5-.362,3.773,3.773,0,0,0,1.077-.959l1.023.8A4.113,4.113,0,0,1,57.044,790.2Zm-.208-8.78a2.234,2.234,0,0,0-1.7.738,3.585,3.585,0,0,0-.851,2.068h4.906V784.1a3.191,3.191,0,0,0-.688-1.978,2.1,2.1,0,0,0-1.668-.7Z" transform="translate(-40.026 -776.117)" fill="#12263f"/>
        <path id="Trazado_149928" data-name="Trazado 149928" d="M95.026,788.835a2.412,2.412,0,0,0,1.566-.543,1.91,1.91,0,0,0,.742-1.358h1.584a3.04,3.04,0,0,1-.579,1.6,3.814,3.814,0,0,1-1.426,1.213,4.111,4.111,0,0,1-1.887.453,4.034,4.034,0,0,1-3.182-1.335,5.317,5.317,0,0,1-1.181-3.652v-.281a5.9,5.9,0,0,1,.525-2.544,4,4,0,0,1,1.507-1.729,4.279,4.279,0,0,1,2.322-.616,3.928,3.928,0,0,1,2.738.987,3.527,3.527,0,0,1,1.163,2.562H97.334a2.308,2.308,0,0,0-.72-1.561,2.238,2.238,0,0,0-1.6-.611,2.343,2.343,0,0,0-1.978.919,4.313,4.313,0,0,0-.7,2.657v.317a4.228,4.228,0,0,0,.7,2.607,2.355,2.355,0,0,0,1.99.915Z" transform="translate(-68.323 -776.117)" fill="#12263f"/>
        <path id="Trazado_149929" data-name="Trazado 149929" d="M132.876,790.2a4.279,4.279,0,0,1-3.241-1.308,4.855,4.855,0,0,1-1.249-3.5v-.308a5.874,5.874,0,0,1,.557-2.6,4.341,4.341,0,0,1,1.557-1.792,3.913,3.913,0,0,1,2.168-.647,3.668,3.668,0,0,1,2.969,1.258,5.447,5.447,0,0,1,1.059,3.6v.7h-6.635a3.48,3.48,0,0,0,.846,2.34,2.66,2.66,0,0,0,2.059.892,2.914,2.914,0,0,0,1.5-.362,3.771,3.771,0,0,0,1.077-.959l1.023.8a4.113,4.113,0,0,1-3.69,1.886Zm-.208-8.78a2.234,2.234,0,0,0-1.7.738,3.585,3.585,0,0,0-.851,2.068h4.906V784.1a3.191,3.191,0,0,0-.688-1.978,2.1,2.1,0,0,0-1.668-.7Z" transform="translate(-96.334 -776.117)" fill="#12263f"/>
        <path id="Trazado_149930" data-name="Trazado 149930" d="M172.711,787.423a1.233,1.233,0,0,0-.511-1.054,4.921,4.921,0,0,0-1.783-.647,8.434,8.434,0,0,1-2.019-.652,2.875,2.875,0,0,1-1.1-.905,2.165,2.165,0,0,1-.358-1.249,2.541,2.541,0,0,1,1.018-2.037,3.977,3.977,0,0,1,2.6-.833,4.092,4.092,0,0,1,2.7.86,2.73,2.73,0,0,1,1.036,2.2H172.61a1.512,1.512,0,0,0-.584-1.186,2.188,2.188,0,0,0-1.471-.5,2.288,2.288,0,0,0-1.43.4,1.253,1.253,0,0,0-.516,1.041,1.016,1.016,0,0,0,.48.914,5.894,5.894,0,0,0,1.733.588,9.039,9.039,0,0,1,2.032.67,2.966,2.966,0,0,1,1.154.937,2.3,2.3,0,0,1,.376,1.335,2.506,2.506,0,0,1-1.05,2.1,4.4,4.4,0,0,1-2.725.792,4.933,4.933,0,0,1-2.082-.416,3.385,3.385,0,0,1-1.417-1.163A2.8,2.8,0,0,1,166.6,787h1.674a1.734,1.734,0,0,0,.675,1.335,2.616,2.616,0,0,0,1.661.493,2.7,2.7,0,0,0,1.525-.385,1.182,1.182,0,0,0,.577-1.022Z" transform="translate(-124.709 -776.117)" fill="#12263f"/>
        <path id="Trazado_149931" data-name="Trazado 149931" d="M205.343,767.866a1,1,0,0,1,.249-.688.935.935,0,0,1,.738-.281.95.95,0,0,1,.742.281,1,1,0,1,1-1.729.688Zm1.81,12.392h-1.675v-9.794h1.675Z" transform="translate(-153.476 -766.354)" fill="#12263f"/>
        <path id="Trazado_149932" data-name="Trazado 149932" d="M221.2,773.713a5.737,5.737,0,0,1,1.068-3.625,3.634,3.634,0,0,1,5.521-.195v-5.1h1.675v13.9h-1.539l-.081-1.05a3.411,3.411,0,0,1-2.8,1.231,3.345,3.345,0,0,1-2.775-1.394,5.8,5.8,0,0,1-1.073-3.639Zm1.675.19a4.344,4.344,0,0,0,.688,2.607,2.224,2.224,0,0,0,1.9.942,2.443,2.443,0,0,0,2.326-1.43v-4.5a2.462,2.462,0,0,0-2.308-1.385,2.234,2.234,0,0,0-1.919.951,4.782,4.782,0,0,0-.689,2.812Z" transform="translate(-165.249 -764.788)" fill="#12263f"/>
        <path id="Trazado_149933" data-name="Trazado 149933" d="M268.623,790.021a3.5,3.5,0,0,1-.235-1.032A3.735,3.735,0,0,1,265.6,790.2a3.458,3.458,0,0,1-2.376-.819,2.65,2.65,0,0,1-.928-2.078,2.769,2.769,0,0,1,1.163-2.376,5.483,5.483,0,0,1,3.272-.846h1.63v-.77a1.881,1.881,0,0,0-.525-1.4,2.11,2.11,0,0,0-1.548-.521,2.441,2.441,0,0,0-1.5.453,1.334,1.334,0,0,0-.607,1.1H262.5a2.309,2.309,0,0,1,.521-1.417,3.55,3.55,0,0,1,1.412-1.082,4.751,4.751,0,0,1,1.96-.4,3.872,3.872,0,0,1,2.652.846,3.053,3.053,0,0,1,1,2.331v4.508a5.508,5.508,0,0,0,.344,2.145v.145Zm-2.779-1.276a2.942,2.942,0,0,0,1.494-.407,2.468,2.468,0,0,0,1.023-1.059v-2.01h-1.313q-3.078,0-3.078,1.8a1.524,1.524,0,0,0,.525,1.231,2.016,2.016,0,0,0,1.349.445Z" transform="translate(-195.766 -776.117)" fill="#12263f"/>
        <path id="Trazado_149934" data-name="Trazado 149934" d="M300.968,773.713a5.738,5.738,0,0,1,1.068-3.625,3.634,3.634,0,0,1,5.522-.2v-5.1h1.674v13.9h-1.539l-.082-1.05a3.41,3.41,0,0,1-2.8,1.231,3.344,3.344,0,0,1-2.774-1.394,5.8,5.8,0,0,1-1.073-3.639Zm1.675.19a4.342,4.342,0,0,0,.688,2.607,2.223,2.223,0,0,0,1.9.942,2.443,2.443,0,0,0,2.327-1.43v-4.5a2.462,2.462,0,0,0-2.308-1.385,2.234,2.234,0,0,0-1.919.951,4.781,4.781,0,0,0-.688,2.812Z" transform="translate(-224.481 -764.788)" fill="#12263f"/>
        <path id="Trazado_149935" data-name="Trazado 149935" d="M345.993,790.2a4.279,4.279,0,0,1-3.241-1.308,4.855,4.855,0,0,1-1.249-3.5v-.308a5.877,5.877,0,0,1,.557-2.6,4.341,4.341,0,0,1,1.557-1.792,3.913,3.913,0,0,1,2.168-.647,3.668,3.668,0,0,1,2.969,1.258,5.447,5.447,0,0,1,1.059,3.6v.7h-6.635a3.48,3.48,0,0,0,.846,2.34,2.661,2.661,0,0,0,2.059.892,2.916,2.916,0,0,0,1.5-.362,3.776,3.776,0,0,0,1.077-.959l1.023.8a4.113,4.113,0,0,1-3.69,1.886Zm-.208-8.78a2.234,2.234,0,0,0-1.7.738,3.586,3.586,0,0,0-.851,2.068h4.906V784.1a3.192,3.192,0,0,0-.688-1.978,2.1,2.1,0,0,0-1.668-.7Z" transform="translate(-254.579 -776.117)" fill="#12263f"/>
        <path id="Trazado_149936" data-name="Trazado 149936" d="M385.828,787.423a1.233,1.233,0,0,0-.511-1.054,4.921,4.921,0,0,0-1.783-.647,8.434,8.434,0,0,1-2.019-.652,2.875,2.875,0,0,1-1.1-.905,2.162,2.162,0,0,1-.357-1.249,2.54,2.54,0,0,1,1.018-2.037,3.975,3.975,0,0,1,2.6-.833,4.092,4.092,0,0,1,2.7.86,2.731,2.731,0,0,1,1.037,2.2h-1.684a1.512,1.512,0,0,0-.584-1.186,2.188,2.188,0,0,0-1.471-.5,2.288,2.288,0,0,0-1.43.4,1.253,1.253,0,0,0-.516,1.041,1.016,1.016,0,0,0,.48.914,5.9,5.9,0,0,0,1.733.588,9.039,9.039,0,0,1,2.032.67,2.964,2.964,0,0,1,1.154.937,2.3,2.3,0,0,1,.376,1.335,2.506,2.506,0,0,1-1.05,2.1,4.4,4.4,0,0,1-2.725.792,4.933,4.933,0,0,1-2.082-.416,3.382,3.382,0,0,1-1.417-1.163,2.8,2.8,0,0,1-.511-1.616h1.675a1.733,1.733,0,0,0,.674,1.335,2.616,2.616,0,0,0,1.661.493,2.7,2.7,0,0,0,1.525-.385A1.182,1.182,0,0,0,385.828,787.423Z" transform="translate(-282.955 -776.117)" fill="#12263f"/>
      </g>
      <g id="Grupo_93796" data-name="Grupo 93796" transform="translate(135.055 87.411)">
        <path id="Trazado_149955" data-name="Trazado 149955" d="M36.927,985.024h-202.89l5.368-5.368-9.938-9.937-22.332,22.332,22.332,22.332,9.938-9.938-5.368-5.367H36.927Zm-4.392,9.662h-209.1l9.759,9.759-3.726,3.727-16.121-16.121,16.121-16.121,3.726,3.727-9.759,9.759h209.1Z" transform="translate(192.865 -969.719)" fill="#4dd0e1"/>
      </g>
      <g id="Grupo_93797" data-name="Grupo 93797" transform="translate(135.055 39.169)">
        <path id="Trazado_149956" data-name="Trazado 149956" d="M-192.865,811.707H10.025l-5.367,5.367,9.938,9.938L36.927,804.68,14.6,782.348l-9.938,9.938,5.367,5.368h-202.89Zm4.392-9.662h209.1l-9.759-9.759,3.727-3.727L30.716,804.68,14.6,820.8l-3.727-3.727,9.759-9.759h-209.1Z" transform="translate(192.865 -782.348)" fill="#4dd0e1"/>
      </g>
      <path id="Trazado_151400" data-name="Trazado 151400" d="M10.31,17H7.734l.949-5.484H3.718L2.76,17H.185L2.408,4.2H4.983l-.9,5.189H9.053l.9-5.186h2.575Zm7.646,0a2.566,2.566,0,0,1-.1-.861,3.221,3.221,0,0,1-2.426,1.037,2.919,2.919,0,0,1-2.07-.813,2.46,2.46,0,0,1-.769-1.964A2.843,2.843,0,0,1,13.9,12.012a5.924,5.924,0,0,1,3.335-.831l1.16.018.123-.571a1.984,1.984,0,0,0,.026-.554.952.952,0,0,0-.312-.646,1.075,1.075,0,0,0-.708-.242,1.514,1.514,0,0,0-.984.286,1.384,1.384,0,0,0-.519.875l-2.487.009a2.764,2.764,0,0,1,1.252-2.21,4.85,4.85,0,0,1,2.94-.831,3.507,3.507,0,0,1,2.531.962,2.816,2.816,0,0,1,.765,2.386l-.729,4.553-.044.563a2.714,2.714,0,0,0,.149,1.055L20.391,17Zm-1.907-1.749a2.27,2.27,0,0,0,1.872-.932l.308-1.644-.861-.009a2.406,2.406,0,0,0-1.978.835,1.454,1.454,0,0,0-.272.712.844.844,0,0,0,.2.751,1,1,0,0,0,.731.287ZM28.415,9.872a5.117,5.117,0,0,0-.835-.088,2.4,2.4,0,0,0-2.1.993L24.381,17H21.9l1.652-9.51,2.329-.009-.229,1.16A2.615,2.615,0,0,1,27.87,7.3a3.615,3.615,0,0,1,.861.123Zm4.5-2.566A2.706,2.706,0,0,1,35.06,8.369L35.991,3.5h2.487L36.141,17H33.926l.141-1.02a3.078,3.078,0,0,1-2.479,1.2,2.738,2.738,0,0,1-1.556-.466A2.933,2.933,0,0,1,29,15.4a5.292,5.292,0,0,1-.4-1.912,7.2,7.2,0,0,1,.026-1.072l.053-.4a7.613,7.613,0,0,1,.813-2.566,4.237,4.237,0,0,1,1.477-1.644A3.481,3.481,0,0,1,32.915,7.306Zm-1.8,5.115a7.118,7.118,0,0,0-.044,1.125q.088,1.547,1.248,1.573a2.121,2.121,0,0,0,1.819-.984l.677-3.779a1.4,1.4,0,0,0-1.371-.984,1.806,1.806,0,0,0-1.507.7,4.7,4.7,0,0,0-.824,2.349Zm15.592,1.116L48.964,7.49h2.47l-4,9.51H45.36l-.7-5.95L41.88,17H39.806l-.7-9.51h2.32l.149,5.985L44.288,7.49h1.793ZM56.54,17a2.566,2.566,0,0,1-.1-.861,3.221,3.221,0,0,1-2.426,1.037,2.919,2.919,0,0,1-2.07-.813,2.46,2.46,0,0,1-.769-1.964,2.843,2.843,0,0,1,1.305-2.386,5.924,5.924,0,0,1,3.335-.831l1.16.018.123-.571a1.984,1.984,0,0,0,.026-.554.952.952,0,0,0-.312-.646,1.075,1.075,0,0,0-.708-.242,1.514,1.514,0,0,0-.984.286,1.384,1.384,0,0,0-.519.875l-2.487.009a2.764,2.764,0,0,1,1.252-2.21,4.85,4.85,0,0,1,2.94-.831,3.507,3.507,0,0,1,2.531.962,2.816,2.816,0,0,1,.765,2.386l-.729,4.553-.044.563a2.714,2.714,0,0,0,.149,1.055l0,.165Zm-1.907-1.749a2.27,2.27,0,0,0,1.872-.932l.308-1.644-.861-.009a2.406,2.406,0,0,0-1.978.835,1.454,1.454,0,0,0-.272.712.844.844,0,0,0,.2.751A1,1,0,0,0,54.633,15.251ZM67,9.872a5.117,5.117,0,0,0-.835-.088,2.4,2.4,0,0,0-2.1.993L62.965,17H60.486l1.652-9.51,2.329-.009-.229,1.16A2.615,2.615,0,0,1,66.454,7.3a3.615,3.615,0,0,1,.861.123Zm4.3,7.3a4.137,4.137,0,0,1-2.21-.611,3.7,3.7,0,0,1-1.437-1.652A4.605,4.605,0,0,1,67.28,12.6l.026-.352A6.148,6.148,0,0,1,68.115,9.7a4.884,4.884,0,0,1,1.74-1.789,4.306,4.306,0,0,1,2.355-.593,3.29,3.29,0,0,1,2.782,1.351A4.631,4.631,0,0,1,75.709,12l-.141,1.083H69.741a2.041,2.041,0,0,0,.448,1.477,1.711,1.711,0,0,0,1.318.571,3.041,3.041,0,0,0,2.373-1.055l1.134,1.406a3.527,3.527,0,0,1-1.547,1.261,5.059,5.059,0,0,1-2.167.433Zm.791-7.813a1.761,1.761,0,0,0-1.217.431,3.784,3.784,0,0,0-.954,1.556h3.41l.053-.229a2.33,2.33,0,0,0,.009-.668,1.276,1.276,0,0,0-.431-.8,1.35,1.35,0,0,0-.873-.287ZM81.4,18.1H79.444L86.423,4.2h1.96ZM99,13.582q.185-1.046-1.028-1.6l-1.7-.677q-2.953-1.318-2.8-3.63a3.334,3.334,0,0,1,.7-1.9,4.227,4.227,0,0,1,1.8-1.3,6.379,6.379,0,0,1,2.5-.453,4.34,4.34,0,0,1,3,1.1A3.676,3.676,0,0,1,102.6,7.983h-2.566a1.831,1.831,0,0,0-.382-1.354,1.722,1.722,0,0,0-1.323-.5,2.667,2.667,0,0,0-1.529.4,1.641,1.641,0,0,0-.773,1.147q-.17.966,1.276,1.524l1.16.439.668.308q2.593,1.283,2.426,3.6a3.477,3.477,0,0,1-.725,1.956,4.088,4.088,0,0,1-1.758,1.261,6.261,6.261,0,0,1-2.448.413,5.483,5.483,0,0,1-2.426-.571,3.767,3.767,0,0,1-1.617-1.538,3.983,3.983,0,0,1-.483-2.109l2.575.009q-.123,2.083,2.048,2.118a2.69,2.69,0,0,0,1.547-.413,1.608,1.608,0,0,0,.724-1.092Zm9.062-6.267a3.814,3.814,0,0,1,2.167.646,3.638,3.638,0,0,1,1.336,1.731,5.357,5.357,0,0,1,.3,2.448,5.786,5.786,0,0,1-1.578,3.669,4.455,4.455,0,0,1-3.4,1.367,3.8,3.8,0,0,1-2.145-.637A3.624,3.624,0,0,1,103.4,14.82a5.239,5.239,0,0,1-.308-2.426,5.957,5.957,0,0,1,1.6-3.744,4.363,4.363,0,0,1,3.361-1.336Zm-2.5,5.979a2.194,2.194,0,0,0,.4,1.33,1.314,1.314,0,0,0,1.063.5,1.926,1.926,0,0,0,1.793-1.049,5.227,5.227,0,0,0,.606-2.848A2.387,2.387,0,0,0,109,9.884a1.293,1.293,0,0,0-1.068-.522,1.929,1.929,0,0,0-1.771,1.04,5.173,5.173,0,0,0-.613,2.892ZM113.238,17l1.327-7.655h-1.371l.325-1.854,1.371-.009.123-.949a3.748,3.748,0,0,1,1.239-2.386,3.751,3.751,0,0,1,2.575-.848,8.246,8.246,0,0,1,1.345.184l-.22,1.97a3.073,3.073,0,0,0-.729-.1,1.817,1.817,0,0,0-1.129.335,1.525,1.525,0,0,0-.584,1.033l-.132.777h1.837l-.325,1.854h-1.828L115.734,17ZM123.943,5.152,123.53,7.49h1.582l-.325,1.863h-1.582l-.809,4.764a1.211,1.211,0,0,0,.07.686q.123.237.6.255a7.525,7.525,0,0,0,.756-.044l-.176,1.942a4.169,4.169,0,0,1-1.424.2,2.234,2.234,0,0,1-1.819-.765,2.763,2.763,0,0,1-.492-2.021l.817-5.019h-1.345l.325-1.863h1.345l.4-2.338Zm9.545,8.385,2.259-6.047h2.47l-4,9.51h-2.074l-.7-5.95L128.663,17h-2.074l-.7-9.51h2.32l.149,5.985,2.716-5.985h1.793ZM143.323,17a2.566,2.566,0,0,1-.1-.861,3.221,3.221,0,0,1-2.426,1.037,2.919,2.919,0,0,1-2.07-.813,2.46,2.46,0,0,1-.769-1.964,2.843,2.843,0,0,1,1.3-2.386,5.924,5.924,0,0,1,3.335-.831l1.16.018.123-.571a1.984,1.984,0,0,0,.026-.554.952.952,0,0,0-.312-.646,1.075,1.075,0,0,0-.708-.242,1.514,1.514,0,0,0-.984.286,1.384,1.384,0,0,0-.519.875l-2.487.009a2.764,2.764,0,0,1,1.252-2.21,4.85,4.85,0,0,1,2.94-.831,3.507,3.507,0,0,1,2.531.962,2.816,2.816,0,0,1,.765,2.386l-.729,4.553-.044.563a2.714,2.714,0,0,0,.149,1.055l-.009.167Zm-1.907-1.749a2.27,2.27,0,0,0,1.872-.932l.308-1.644-.861-.009a2.406,2.406,0,0,0-1.978.835,1.454,1.454,0,0,0-.272.712.844.844,0,0,0,.2.751A1,1,0,0,0,141.416,15.251Zm12.366-5.379a5.117,5.117,0,0,0-.835-.088,2.4,2.4,0,0,0-2.1.993L149.748,17H147.27l1.652-9.51,2.329-.009-.229,1.16A2.615,2.615,0,0,1,153.237,7.3a3.615,3.615,0,0,1,.861.123Zm4.3,7.3a4.137,4.137,0,0,1-2.21-.611,3.7,3.7,0,0,1-1.437-1.652,4.6,4.6,0,0,1-.369-2.316l.026-.352A6.148,6.148,0,0,1,154.9,9.7a4.884,4.884,0,0,1,1.74-1.789,4.306,4.306,0,0,1,2.355-.593,3.29,3.29,0,0,1,2.782,1.351A4.631,4.631,0,0,1,162.492,12l-.141,1.083h-5.827a2.041,2.041,0,0,0,.448,1.477,1.711,1.711,0,0,0,1.318.571,3.041,3.041,0,0,0,2.373-1.055l1.134,1.406a3.527,3.527,0,0,1-1.547,1.261,5.059,5.059,0,0,1-2.17.433Zm.791-7.813a1.761,1.761,0,0,0-1.217.431,3.784,3.784,0,0,0-.954,1.556h3.41l.053-.229a2.33,2.33,0,0,0,.009-.668,1.276,1.276,0,0,0-.431-.8,1.35,1.35,0,0,0-.872-.287Z" transform="translate(185.716 124.176)" fill="#12263f"/>
    </g>
  </g>
</svg>
